<svg class="animated" id="freepik_stories-electric-car" xmlns="http://www.w3.org/2000/svg" xmlns:xlink="http://www.w3.org/1999/xlink" viewBox="0 0 500 500" version="1.1" xmlns:svgjs="http://svgjs.com/svgjs"><style>svg#freepik_stories-electric-car:not(.animated) .animable {opacity: 0;}svg#freepik_stories-electric-car.animated #freepik--Clouds--inject-132 {animation: 1.5s Infinite  linear wind;animation-delay: 0s;}svg#freepik_stories-electric-car.animated #freepik--Trees--inject-132 {animation: 1s 1 forwards linear slideLeft,1.5s Infinite  linear wind;animation-delay: 0s,1s;}svg#freepik_stories-electric-car.animated #freepik--charging-station--inject-132 {animation: 1s 1 forwards linear lightSpeedRight;animation-delay: 0s;}svg#freepik_stories-electric-car.animated #freepik--Car--inject-132 {animation: 1s 1 forwards linear slideLeft,1.5s Infinite  linear floating;animation-delay: 0s,1s;}            @keyframes wind {                0% {                    transform: rotate( 0deg );                }                25% {                    transform: rotate( 1deg );                }                75% {                    transform: rotate( -1deg );                }            }                    @keyframes slideLeft {                0% {                    opacity: 0;                    transform: translateX(-30px);                }                100% {                    opacity: 1;                    transform: translateX(0);                }            }                    @keyframes lightSpeedRight {              from {                transform: translate3d(50%, 0, 0) skewX(-20deg);                opacity: 0;              }              60% {                transform: skewX(10deg);                opacity: 1;              }              80% {                transform: skewX(-2deg);              }              to {                opacity: 1;                transform: translate3d(0, 0, 0);              }            }                    @keyframes floating {                0% {                    opacity: 1;                    transform: translateY(0px);                }                50% {                    transform: translateY(-10px);                }                100% {                    opacity: 1;                    transform: translateY(0px);                }            }        </style><g id="freepik--background-simple--inject-132" class="animable" style="transform-origin: 252.701px 236.327px;"><path d="M432.19,216.51A142.08,142.08,0,0,0,417.8,174.3c-12.22-23-34.36-57.92-61.68-71.51-42.2-21-82.12-22-120.94,11s-68.84,127-83.21,143-53.62,19-70.76,44-17.48,84-17.48,84H438S449.33,314,432.19,216.51Z" style="fill: rgb(255, 193, 0); transform-origin: 252.701px 236.328px;" id="eljzysz2z6ot" class="animable"></path><g id="el2dj82k1xwxk"><path d="M432.19,216.51A142.08,142.08,0,0,0,417.8,174.3c-12.22-23-34.36-57.92-61.68-71.51-42.2-21-82.12-22-120.94,11s-68.84,127-83.21,143-53.62,19-70.76,44-17.48,84-17.48,84H438S449.33,314,432.19,216.51Z" style="fill: rgb(255, 255, 255); opacity: 0.8; transform-origin: 252.701px 236.328px;" class="animable"></path></g></g><g id="freepik--Clouds--inject-132" class="animable" style="transform-origin: 300.295px 167.781px;"><path d="M387.22,180.6c-4.46-2.44-6.48-.41-8.1-2.44s4.45-7.29-7.71-12.56c0,0-.81-11.35-17.43-11.76S341.82,165.19,337.36,168s-5.68-1.62-10.14,1.22-2.43,8.51-6.08,9.32-8.51-3.65-13-.81-4.46,5.27-6.49,5.27-6.08-1.62-8.51,0-5.27,3.65-5.27,3.65H390.47S391.68,183,387.22,180.6Z" style="fill: rgb(255, 193, 0); transform-origin: 339.245px 170.24px;" id="el199nabni98s" class="animable"></path><g id="el8gzon4tetgo"><path d="M387.22,180.6c-4.46-2.44-6.48-.41-8.1-2.44s4.45-7.29-7.71-12.56c0,0-.81-11.35-17.43-11.76S341.82,165.19,337.36,168s-5.68-1.62-10.14,1.22-2.43,8.51-6.08,9.32-8.51-3.65-13-.81-4.46,5.27-6.49,5.27-6.08-1.62-8.51,0-5.27,3.65-5.27,3.65H390.47S391.68,183,387.22,180.6Z" style="fill: rgb(255, 193, 0); opacity: 0.5; transform-origin: 339.245px 170.24px;" class="animable"></path></g><path d="M298.8,125.69c-2.64-1.44-3.84-.24-4.8-1.44s2.64-4.33-4.57-7.45c0,0-.48-6.73-10.33-7s-7.21,6.73-9.85,8.41-3.36-1-6,.72-1.44,5.05-3.6,5.53-5-2.17-7.69-.48-2.64,3.12-3.85,3.12-3.6-1-5,0-3.12,2.16-3.12,2.16h60.79S301.45,127.13,298.8,125.69Z" style="fill: rgb(255, 193, 0); transform-origin: 270.423px 119.526px;" id="el3wthh4wev7v" class="animable"></path><g id="elsaxtss58x4k"><path d="M298.8,125.69c-2.64-1.44-3.84-.24-4.8-1.44s2.64-4.33-4.57-7.45c0,0-.48-6.73-10.33-7s-7.21,6.73-9.85,8.41-3.36-1-6,.72-1.44,5.05-3.6,5.53-5-2.17-7.69-.48-2.64,3.12-3.85,3.12-3.6-1-5,0-3.12,2.16-3.12,2.16h60.79S301.45,127.13,298.8,125.69Z" style="fill: rgb(255, 193, 0); opacity: 0.5; transform-origin: 270.423px 119.526px;" class="animable"></path></g><path d="M268.79,222.19c-2.64-1.44-3.84-.24-4.8-1.44s2.64-4.33-4.57-7.45c0,0-.48-6.73-10.33-7s-7.21,6.73-9.85,8.41-3.37-1-6,.72-1.44,5-3.6,5.53-5-2.16-7.69-.48-2.65,3.12-3.85,3.12-3.6-1-5,0-3.13,2.17-3.13,2.17h60.79S271.43,223.63,268.79,222.19Z" style="fill: rgb(255, 193, 0); transform-origin: 240.403px 216.031px;" id="elbsyxoxf003h" class="animable"></path><g id="elarmmkp40kne"><path d="M268.79,222.19c-2.64-1.44-3.84-.24-4.8-1.44s2.64-4.33-4.57-7.45c0,0-.48-6.73-10.33-7s-7.21,6.73-9.85,8.41-3.37-1-6,.72-1.44,5-3.6,5.53-5-2.16-7.69-.48-2.65,3.12-3.85,3.12-3.6-1-5,0-3.13,2.17-3.13,2.17h60.79S271.43,223.63,268.79,222.19Z" style="fill: rgb(255, 193, 0); opacity: 0.5; transform-origin: 240.403px 216.031px;" class="animable"></path></g><g id="el6sd2116qbd6"><g style="opacity: 0.6; transform-origin: 339.245px 170.24px;" class="animable"><path d="M387.22,180.6c-4.46-2.44-6.48-.41-8.1-2.44s4.45-7.29-7.71-12.56c0,0-.81-11.35-17.43-11.76S341.82,165.19,337.36,168s-5.68-1.62-10.14,1.22-2.43,8.51-6.08,9.32-8.51-3.65-13-.81-4.46,5.27-6.49,5.27-6.08-1.62-8.51,0-5.27,3.65-5.27,3.65H390.47S391.68,183,387.22,180.6Z" style="fill: rgb(255, 255, 255); transform-origin: 339.245px 170.24px;" id="el2stzh6jiewu" class="animable"></path><g id="elg9ilxga28te"><path d="M387.22,180.6c-4.46-2.44-6.48-.41-8.1-2.44s4.45-7.29-7.71-12.56c0,0-.81-11.35-17.43-11.76S341.82,165.19,337.36,168s-5.68-1.62-10.14,1.22-2.43,8.51-6.08,9.32-8.51-3.65-13-.81-4.46,5.27-6.49,5.27-6.08-1.62-8.51,0-5.27,3.65-5.27,3.65H390.47S391.68,183,387.22,180.6Z" style="fill: rgb(255, 255, 255); opacity: 0.5; transform-origin: 339.245px 170.24px;" class="animable"></path></g></g></g><g id="elo8dnjh46p2c"><g style="opacity: 0.6; transform-origin: 270.423px 119.526px;" class="animable"><path d="M298.8,125.69c-2.64-1.44-3.84-.24-4.8-1.44s2.64-4.33-4.57-7.45c0,0-.48-6.73-10.33-7s-7.21,6.73-9.85,8.41-3.36-1-6,.72-1.44,5.05-3.6,5.53-5-2.17-7.69-.48-2.64,3.12-3.85,3.12-3.6-1-5,0-3.12,2.16-3.12,2.16h60.79S301.45,127.13,298.8,125.69Z" style="fill: rgb(255, 255, 255); transform-origin: 270.423px 119.526px;" id="el4s3bqtorlsw" class="animable"></path><g id="elmkysr659ldn"><path d="M298.8,125.69c-2.64-1.44-3.84-.24-4.8-1.44s2.64-4.33-4.57-7.45c0,0-.48-6.73-10.33-7s-7.21,6.73-9.85,8.41-3.36-1-6,.72-1.44,5.05-3.6,5.53-5-2.17-7.69-.48-2.64,3.12-3.85,3.12-3.6-1-5,0-3.12,2.16-3.12,2.16h60.79S301.45,127.13,298.8,125.69Z" style="fill: rgb(255, 255, 255); opacity: 0.5; transform-origin: 270.423px 119.526px;" class="animable"></path></g></g></g><g id="eluj0442t8kgf"><g style="opacity: 0.6; transform-origin: 240.403px 216.031px;" class="animable"><path d="M268.79,222.19c-2.64-1.44-3.84-.24-4.8-1.44s2.64-4.33-4.57-7.45c0,0-.48-6.73-10.33-7s-7.21,6.73-9.85,8.41-3.37-1-6,.72-1.44,5-3.6,5.53-5-2.16-7.69-.48-2.65,3.12-3.85,3.12-3.6-1-5,0-3.13,2.17-3.13,2.17h60.79S271.43,223.63,268.79,222.19Z" style="fill: rgb(255, 255, 255); transform-origin: 240.403px 216.031px;" id="el8y2980x649n" class="animable"></path><g id="elpv1msrjmhfn"><path d="M268.79,222.19c-2.64-1.44-3.84-.24-4.8-1.44s2.64-4.33-4.57-7.45c0,0-.48-6.73-10.33-7s-7.21,6.73-9.85,8.41-3.37-1-6,.72-1.44,5-3.6,5.53-5-2.16-7.69-.48-2.65,3.12-3.85,3.12-3.6-1-5,0-3.13,2.17-3.13,2.17h60.79S271.43,223.63,268.79,222.19Z" style="fill: rgb(255, 255, 255); opacity: 0.5; transform-origin: 240.403px 216.031px;" class="animable"></path></g></g></g></g><g id="freepik--Trees--inject-132" class="animable" style="transform-origin: 276.425px 261.432px;"><path d="M357.2,384.05h51.53c-1-6.3-5-5.19-5.57-15-.27-4.92,4.28-11,3.88-17.47-.32-5.32-5.57-10.78-6-16.87-.36-5.49,4.11-11.59,3.68-17.51-.41-5.6-5.73-11-6.2-16.79s3.93-11.84,3.41-17.58-5.93-11-6.51-16.67c-.59-5.82,3.66-12.08,3-17.64-.69-5.91-6.27-11-7-16.46-.85-6.06,3.1-12.54,2.18-17.77-1.13-6.41-7.1-11.05-8.36-15.78-2.34-8.81-2-17.31-4.81-17.86-2.95-.59-3.62,7.73-5.85,17-1.13,4.68-7,9.42-7.92,15.83-.78,5.2,3.35,11.51,2.67,17.55-.6,5.41-6,10.6-6.57,16.48-.49,5.53,3.92,11.62,3.48,17.4-.42,5.62-5.69,11-6.06,16.68s4.19,11.68,3.88,17.32-5.5,11.22-5.76,16.78c-.28,5.87,4.35,11.8,4.13,17.25-.25,6-5.36,11.58-5.55,16.86-.23,6.41,4.48,12.32,4.34,17.2-.32,10.59-5.17,8.4-5.34,16.92Z" style="fill: rgb(255, 193, 0); transform-origin: 382.305px 282.335px;" id="el74dq3t0euek" class="animable"></path><line x1="379.32" y1="197.63" x2="379.32" y2="381.67" style="fill: none; stroke: rgb(38, 50, 56); stroke-miterlimit: 10; transform-origin: 379.32px 289.65px;" id="ela4743yqjoe" class="animable"></line><polyline points="387.37 216.92 378.98 224.17 372.11 215.01" style="fill: none; stroke: rgb(38, 50, 56); stroke-miterlimit: 10; transform-origin: 379.74px 219.59px;" id="elpdl2rj20ep" class="animable"></polyline><polyline points="387.37 248.96 378.98 256.2 372.11 247.05" style="fill: none; stroke: rgb(38, 50, 56); stroke-miterlimit: 10; transform-origin: 379.74px 251.625px;" id="el6k8xawsnax6" class="animable"></polyline><polyline points="387.37 279.08 378.98 286.33 372.11 277.18" style="fill: none; stroke: rgb(38, 50, 56); stroke-miterlimit: 10; transform-origin: 379.74px 281.755px;" id="elq4zp3nioxbf" class="animable"></polyline><polyline points="387.37 314.93 378.98 322.18 372.11 313.03" style="fill: none; stroke: rgb(38, 50, 56); stroke-miterlimit: 10; transform-origin: 379.74px 317.605px;" id="ell2f27c48lg" class="animable"></polyline><polyline points="387.37 351.16 378.98 358.41 372.11 349.26" style="fill: none; stroke: rgb(38, 50, 56); stroke-miterlimit: 10; transform-origin: 379.74px 353.835px;" id="ele5po4a2fg8" class="animable"></polyline><path d="M303,384.05h44.69c-.86-5.46-4.37-4.5-4.84-13-.23-4.27,3.72-9.55,3.38-15.15-.29-4.61-4.84-9.35-5.19-14.63-.32-4.76,3.57-10.05,3.19-15.19-.36-4.85-5-9.51-5.38-14.55s3.41-10.27,3-15.25-5.15-9.55-5.64-14.45c-.52-5.05,3.16-10.48,2.6-15.3-.6-5.13-5.43-9.55-6.09-14.27-.73-5.26,2.7-10.88,1.9-15.41-1-5.56-6.16-9.59-7.25-13.69-2-7.64-1.77-15-4.17-15.48-2.56-.52-3.14,6.7-5.08,14.78-1,4-6,8.16-6.86,13.72-.68,4.51,2.9,10,2.31,15.22-.52,4.69-5.23,9.19-5.69,14.29-.43,4.79,3.39,10.08,3,15.09s-4.93,9.52-5.25,14.46,3.63,10.13,3.36,15-4.77,9.73-5,14.55c-.24,5.1,3.78,10.24,3.58,15-.21,5.24-4.64,10-4.8,14.62-.2,5.56,3.88,10.69,3.76,14.92-.28,9.18-4.48,7.28-4.63,14.67Z" style="fill: rgb(255, 193, 0); transform-origin: 324.795px 295.852px;" id="elwm8un9fmh6b" class="animable"></path><line x1="322.16" y1="222.39" x2="322.16" y2="381.99" style="fill: none; stroke: rgb(38, 50, 56); stroke-miterlimit: 10; transform-origin: 322.16px 302.19px;" id="elfvzc2lbo76t" class="animable"></line><polyline points="329.14 239.12 321.87 245.41 315.91 237.47" style="fill: none; stroke: rgb(38, 50, 56); stroke-miterlimit: 10; transform-origin: 322.525px 241.44px;" id="elx871t5ebiyc" class="animable"></polyline><polyline points="329.14 266.9 321.87 273.19 315.91 265.25" style="fill: none; stroke: rgb(38, 50, 56); stroke-miterlimit: 10; transform-origin: 322.525px 269.22px;" id="elok5omymqw5" class="animable"></polyline><polyline points="329.14 293.03 321.87 299.31 315.91 291.38" style="fill: none; stroke: rgb(38, 50, 56); stroke-miterlimit: 10; transform-origin: 322.525px 295.345px;" id="eljei6dsk3eu" class="animable"></polyline><polyline points="329.14 324.12 321.87 330.4 315.91 322.46" style="fill: none; stroke: rgb(38, 50, 56); stroke-miterlimit: 10; transform-origin: 322.525px 326.43px;" id="ell7thmuzofr" class="animable"></polyline><polyline points="329.14 355.53 321.87 361.82 315.91 353.88" style="fill: none; stroke: rgb(38, 50, 56); stroke-miterlimit: 10; transform-origin: 322.525px 357.85px;" id="el6g75g8ixnq6" class="animable"></polyline><path d="M145.68,384.05h62.16c-1.19-7.6-6.08-6.26-6.73-18-.32-5.94,5.17-13.28,4.69-21.07-.39-6.42-6.72-13-7.21-20.35-.44-6.63,5-14,4.44-21.13-.5-6.75-6.92-13.23-7.48-20.25-.56-6.84,4.73-14.27,4.11-21.2s-7.16-13.28-7.85-20.1c-.71-7,4.41-14.57,3.63-21.29-.84-7.12-7.56-13.28-8.47-19.85-1-7.31,3.75-15.12,2.63-21.43-1.36-7.73-8.56-13.33-10.08-19-2.82-10.63-2.47-20.88-5.8-21.55-3.56-.71-4.37,9.34-7.06,20.56-1.36,5.64-8.4,11.36-9.55,19.09-.94,6.27,4,13.89,3.22,21.17-.73,6.52-7.28,12.79-7.92,19.88-.6,6.66,4.72,14,4.2,21-.51,6.77-6.87,13.23-7.31,20.11s5,14.1,4.67,20.89c-.39,7-6.63,13.54-6.95,20.24-.34,7.09,5.25,14.24,5,20.81-.3,7.29-6.46,14-6.69,20.33-.27,7.73,5.41,14.87,5.23,20.75-.38,12.78-6.23,10.13-6.44,20.41Z" style="fill: rgb(255, 193, 0); transform-origin: 175.98px 261.432px;" id="el9o6ljs0kwce" class="animable"></path><line x1="172.36" y1="159.19" x2="172.36" y2="381.18" style="fill: none; stroke: rgb(38, 50, 56); stroke-miterlimit: 10; transform-origin: 172.36px 270.185px;" id="ela04qnffwh1r" class="animable"></line><polyline points="182.07 182.47 171.95 191.21 163.67 180.17" style="fill: none; stroke: rgb(38, 50, 56); stroke-miterlimit: 10; transform-origin: 172.87px 185.69px;" id="eljlji7togvc" class="animable"></polyline><polyline points="182.07 221.1 171.95 229.84 163.67 218.81" style="fill: none; stroke: rgb(38, 50, 56); stroke-miterlimit: 10; transform-origin: 172.87px 224.325px;" id="el4ri6vo8sbxr" class="animable"></polyline><polyline points="182.07 257.44 171.95 266.18 163.67 255.14" style="fill: none; stroke: rgb(38, 50, 56); stroke-miterlimit: 10; transform-origin: 172.87px 260.66px;" id="eli7f22spgj3k" class="animable"></polyline><polyline points="182.07 300.68 171.95 309.42 163.67 298.38" style="fill: none; stroke: rgb(38, 50, 56); stroke-miterlimit: 10; transform-origin: 172.87px 303.9px;" id="el2yd2eyo887d" class="animable"></polyline><polyline points="182.07 344.38 171.95 353.12 163.67 342.08" style="fill: none; stroke: rgb(38, 50, 56); stroke-miterlimit: 10; transform-origin: 172.87px 347.6px;" id="el07auzmeh8gg4" class="animable"></polyline></g><g id="freepik--charging-station--inject-132" class="animable animator-active" style="transform-origin: 253.585px 317.325px;"><path d="M132,315.36v54.17a9.83,9.83,0,0,0,9.83,9.83H254.18a9.83,9.83,0,0,0,9.83-9.83v-6.17" style="fill: none; stroke: rgb(38, 50, 56); stroke-linecap: round; stroke-linejoin: round; stroke-width: 2px; transform-origin: 198.005px 347.36px;" id="eluys2277vae" class="animable"></path><rect x="127.18" y="304.78" width="8.37" height="6.17" style="fill: rgb(38, 50, 56); stroke: rgb(38, 50, 56); stroke-linecap: round; stroke-linejoin: round; transform-origin: 131.365px 307.865px;" id="el3bz04io02yh" class="animable"></rect><rect x="87.05" y="275.2" width="41.18" height="111.84" style="fill: rgb(255, 255, 255); transform-origin: 107.64px 331.12px;" id="elixmptibudrr" class="animable"></rect><g style="clip-path: url(&quot;#freepik--clip-path--inject-132&quot;); transform-origin: 100.245px 331.12px;" id="elztu1ob6kr6" class="animable"><polygon points="87.05 387.04 105.42 387.04 105.42 290 105.31 275.2 87.05 275.2 87.05 387.04" style="fill: rgb(255, 193, 0); transform-origin: 96.235px 331.12px;" id="eldoe962tcald" class="animable"></polygon><g id="eldnk4xazv2eq"><polygon points="87.05 387.04 105.42 387.04 105.42 290 105.31 275.2 87.05 275.2 87.05 387.04" style="fill: rgb(255, 255, 255); opacity: 0.5; transform-origin: 96.235px 331.12px;" class="animable"></polygon></g><polygon points="113.44 328.25 110.55 328.25 112.68 322.46 105.73 322.46 102.75 330.57 104.84 330.57 101.21 340.41 113.44 328.25" style="fill: rgb(38, 50, 56); transform-origin: 107.325px 331.435px;" id="el3v8c524kk7g" class="animable"></polygon></g><rect x="87.05" y="275.2" width="41.18" height="111.84" style="fill: none; stroke: rgb(38, 50, 56); stroke-miterlimit: 10; transform-origin: 107.64px 331.12px;" id="elt6xpbovb5nm" class="animable"></rect><ellipse cx="107.64" cy="276.79" rx="20.59" ry="31.47" style="fill: rgb(255, 255, 255); stroke: rgb(38, 50, 56); stroke-linecap: round; stroke-linejoin: round; transform-origin: 107.64px 276.79px;" id="elzjaxfc8fh1h" class="animable"></ellipse><rect x="101.25" y="266.91" width="12.77" height="10.13" rx="1.57" style="fill: rgb(255, 193, 0); stroke: rgb(38, 50, 56); stroke-linecap: round; stroke-linejoin: round; transform-origin: 107.635px 271.975px;" id="elzo6q3dex4c" class="animable"></rect><path d="M114.68,295.54a7,7,0,1,0-7,7A7,7,0,0,0,114.68,295.54Z" style="fill: rgb(38, 50, 56); stroke: rgb(38, 50, 56); stroke-linecap: round; stroke-linejoin: round; transform-origin: 107.68px 295.54px;" id="elayzptzn2l4m" class="animable"></path><g id="eljbcw9r4vgk"><path d="M111.16,295.54a3.52,3.52,0,1,0-3.52,3.52A3.53,3.53,0,0,0,111.16,295.54Z" style="fill: rgb(255, 255, 255); opacity: 0.2; transform-origin: 107.64px 295.54px;" class="animable"></path></g><path d="M109.84,255.46a2.2,2.2,0,1,0-2.2,2.2A2.21,2.21,0,0,0,109.84,255.46Z" style="fill: rgb(38, 50, 56); stroke: rgb(38, 50, 56); stroke-linecap: round; stroke-linejoin: round; transform-origin: 107.64px 255.46px;" id="elzr4t31hxpv8" class="animable"></path><rect x="130.24" y="310.38" width="3.65" height="6.17" style="fill: rgb(38, 50, 56); stroke: rgb(38, 50, 56); stroke-linecap: round; stroke-linejoin: round; transform-origin: 132.065px 313.465px;" id="elemai3wnu5mn" class="animable"></rect><rect x="87.05" y="366.44" width="41.18" height="20.6" style="fill: rgb(255, 193, 0); stroke: rgb(38, 50, 56); stroke-linecap: round; stroke-linejoin: round; transform-origin: 107.64px 376.74px;" id="elz0nit3thb0q" class="animable"></rect><rect x="60.72" y="380.09" width="385.73" height="7.49" style="fill: rgb(255, 255, 255); stroke: rgb(38, 50, 56); stroke-linecap: round; stroke-linejoin: round; transform-origin: 253.585px 383.835px;" id="elwe509tod7yc" class="animable"></rect><rect x="60.72" y="385.81" width="385.73" height="3.52" style="fill: rgb(38, 50, 56); stroke: rgb(38, 50, 56); stroke-linecap: round; stroke-linejoin: round; transform-origin: 253.585px 387.57px;" id="elxgxzotw123" class="animable"></rect></g><g id="freepik--Car--inject-132" class="animable" style="transform-origin: 278.34px 330.17px;"><path d="M203.39,301.93h-.54a3.4,3.4,0,0,1-3.23-4.46c.68-2.1,1.83-4.22,3.77-4.54,4-.67,15,2.67,15,5s0,3.33-1.34,3.33h-8.33l-6.67,7.34-.14-.12a3.07,3.07,0,0,1,0-4.71A6.94,6.94,0,0,0,203.39,301.93Z" style="fill: rgb(38, 50, 56); stroke: rgb(38, 50, 56); stroke-linecap: round; stroke-linejoin: round; transform-origin: 208.92px 300.721px;" id="elbvy3tcpp2th" class="animable"></path><path d="M278.72,363.93H389.39s16-10.67,12.66-38.67-21.33-9.33-28,9.34H324.72s-10.67-21.34-28-18.67S278.72,363.93,278.72,363.93Z" style="fill: rgb(38, 50, 56); stroke: rgb(38, 50, 56); stroke-linecap: round; stroke-linejoin: round; transform-origin: 340.614px 337.456px;" id="elcszs82khxlw" class="animable"></path><path d="M305.91,358.39c0-8.23-2.35-15.63-6.12-20.86v-7.8H286.45c-10.76,0-19.47,12.83-19.47,28.66S275.69,387,286.45,387h13.34v-7.8C303.56,374,305.91,366.61,305.91,358.39Z" style="fill: rgb(38, 50, 56); stroke: rgb(38, 50, 56); stroke-linecap: round; stroke-linejoin: round; transform-origin: 286.445px 358.365px;" id="elduaaueyp3q5" class="animable"></path><ellipse cx="299.79" cy="358.39" rx="19.47" ry="28.65" style="fill: rgb(38, 50, 56); transform-origin: 299.79px 358.39px;" id="ellfoobj58q" class="animable"></ellipse><g style="clip-path: url(&quot;#freepik--clip-path-2--inject-132&quot;); transform-origin: 299.79px 358.39px;" id="el2pd33n5q19u" class="animable"><g id="elern9arg8og7"><ellipse cx="299.79" cy="358.39" rx="19.47" ry="28.65" style="fill: rgb(255, 255, 255); opacity: 0.2; transform-origin: 299.79px 358.39px;" class="animable"></ellipse></g></g><ellipse cx="299.79" cy="358.39" rx="19.47" ry="28.65" style="fill: none; stroke: rgb(38, 50, 56); stroke-linecap: round; stroke-linejoin: round; transform-origin: 299.79px 358.39px;" id="elr9uvct1r4d" class="animable"></ellipse><path d="M185.65,329.73H173c-10.16,0-18.4,12.83-18.4,28.66S162.88,387,173,387h12.61c10.16,0,18.4-12.83,18.4-28.65S195.81,329.73,185.65,329.73Z" style="fill: rgb(38, 50, 56); stroke: rgb(38, 50, 56); stroke-linecap: round; stroke-linejoin: round; transform-origin: 179.305px 358.365px;" id="el0r9aza76m89g" class="animable"></path><ellipse cx="299.79" cy="358.39" rx="15.53" ry="22.86" style="fill: rgb(255, 255, 255); stroke: rgb(38, 50, 56); stroke-linecap: round; stroke-linejoin: round; transform-origin: 299.79px 358.39px;" id="eluqybosu70p7" class="animable"></ellipse><path d="M397.08,358.39c0-8.23-1.5-15.63-3.9-20.86v-7.8H381.4c-6.84,0-12.39,12.83-12.39,28.66S374.56,387,381.4,387h11.78v-7.8C395.58,374,397.08,366.61,397.08,358.39Z" style="fill: rgb(38, 50, 56); stroke: rgb(38, 50, 56); stroke-linecap: round; stroke-linejoin: round; transform-origin: 383.045px 358.365px;" id="elvmds206ikzs" class="animable"></path><ellipse cx="393.18" cy="358.39" rx="12.39" ry="28.65" style="fill: rgb(38, 50, 56); transform-origin: 393.18px 358.39px;" id="els37gb3k71g" class="animable"></ellipse><g style="clip-path: url(&quot;#freepik--clip-path-3--inject-132&quot;); transform-origin: 393.18px 358.39px;" id="elhae1fryl2nn" class="animable"><g id="el5y9kx0djnzl"><ellipse cx="393.18" cy="358.39" rx="12.39" ry="28.65" style="fill: rgb(255, 255, 255); opacity: 0.2; transform-origin: 393.18px 358.39px;" class="animable"></ellipse></g></g><ellipse cx="393.18" cy="358.39" rx="12.39" ry="28.65" style="fill: none; stroke: rgb(38, 50, 56); stroke-linecap: round; stroke-linejoin: round; transform-origin: 393.18px 358.39px;" id="elidfgzt7y4n" class="animable"></ellipse><ellipse cx="393.18" cy="358.39" rx="9.88" ry="22.86" style="fill: rgb(255, 255, 255); stroke: rgb(38, 50, 56); stroke-linecap: round; stroke-linejoin: round; transform-origin: 393.18px 358.39px;" id="elaq2kws6o9tb" class="animable"></ellipse><path d="M283.38,365.38c0-22.83,7.94-41.34,17.72-41.34s17.72,18.51,17.72,41.34c0,1.26,0,2.5-.08,3.72h63.13q-.06-1.83-.06-3.72c0-22.83,5.78-41.34,12.91-41.34,4.76,0,8.92,8.27,11.15,20.57V310.89a6.58,6.58,0,0,0-5.38-6.47l-.3-.06c-4.38-.88-12.25-9.19-24.5-19.69S352.5,273.3,352.5,273.3H242a9.43,9.43,0,0,0-5.77,2l-37.69,29.09s-33.69,6.56-41.13,14-6.56,50.74-6.56,50.74H283.46C283.41,367.88,283.38,366.64,283.38,365.38Z" style="fill: rgb(255, 193, 0); transform-origin: 278.344px 321.215px;" id="el83cko06gzcx" class="animable"></path><g style="clip-path: url(&quot;#freepik--clip-path-4--inject-132&quot;); transform-origin: 230.964px 321.215px;" id="eljfwgnz0ucqj" class="animable"><g id="elwjmu2s5d5w"><path d="M305.26,304.36l5.85-31.06H242a9.43,9.43,0,0,0-5.77,2l-37.69,29.09s-33.69,6.56-41.13,14-6.56,50.74-6.56,50.74H269.17c.86-23.38,6.22-34.5,6.22-34.5H242.72C268.05,307.26,305.26,304.36,305.26,304.36Z" style="opacity: 0.3; transform-origin: 230.964px 321.215px;" class="animable"></path></g></g><path d="M283.38,365.38c0-22.83,7.94-41.34,17.72-41.34s17.72,18.51,17.72,41.34c0,1.26,0,2.5-.08,3.72h63.13q-.06-1.83-.06-3.72c0-22.83,5.78-41.34,12.91-41.34,4.76,0,8.92,8.27,11.15,20.57V310.89a6.58,6.58,0,0,0-5.38-6.47l-.3-.06c-4.38-.88-12.25-9.19-24.5-19.69S352.5,273.3,352.5,273.3H242a9.43,9.43,0,0,0-5.77,2l-37.69,29.09s-33.69,6.56-41.13,14-6.56,50.74-6.56,50.74H283.46C283.41,367.88,283.38,366.64,283.38,365.38Z" style="fill: none; stroke: rgb(38, 50, 56); stroke-linecap: round; stroke-linejoin: round; transform-origin: 278.344px 321.215px;" id="elubjea1q95pd" class="animable"></path><path d="M325.38,273.3H242a9.43,9.43,0,0,0-5.77,2l-37.69,29.09H305.26Z" style="fill: rgb(255, 193, 0); stroke: rgb(38, 50, 56); stroke-linecap: round; stroke-linejoin: round; transform-origin: 261.96px 288.845px;" id="el714n7hsw7ww" class="animable"></path><path d="M281.7,316.06c-6,.08-16.51.48-21.06,2.3a82.86,82.86,0,0,0-10.94,5.25h21.43Z" style="fill: rgb(38, 50, 56); stroke: rgb(38, 50, 56); stroke-linecap: round; stroke-linejoin: round; transform-origin: 265.7px 319.835px;" id="elq54zymamx8" class="animable"></path><path d="M272.45,330.17v-3.94H249.7l4.12,3.8a.94.94,0,0,0-.18.14Z" style="fill: rgb(38, 50, 56); stroke: rgb(38, 50, 56); stroke-linecap: round; stroke-linejoin: round; transform-origin: 261.075px 328.2px;" id="elugi7yytuqt" class="animable"></path><path d="M274.63,324.48v5.72a5.78,5.78,0,0,0,4.38-2.66c2.19-3.5,7.11-11.48,7.11-11.48Z" style="fill: rgb(38, 50, 56); stroke: rgb(38, 50, 56); stroke-linecap: round; stroke-linejoin: round; transform-origin: 280.375px 323.13px;" id="elhor48c4a1h" class="animable"></path><path d="M159.51,330l4.12-3.8h-9.71c-.3,1.23-.58,2.55-.82,3.94h6.59A1.41,1.41,0,0,0,159.51,330Z" style="fill: rgb(38, 50, 56); stroke: rgb(38, 50, 56); stroke-linecap: round; stroke-linejoin: round; transform-origin: 158.365px 328.17px;" id="elo0zgzhihkp" class="animable"></path><path d="M156.26,319.87a18.33,18.33,0,0,0-1.6,3.74h9A75.82,75.82,0,0,0,156.26,319.87Z" style="fill: rgb(38, 50, 56); stroke: rgb(38, 50, 56); stroke-linecap: round; stroke-linejoin: round; transform-origin: 159.16px 321.74px;" id="el48sybcwnh1q" class="animable"></path><path d="M305.26,304.36H370s9.19-3.06,6.56-14.44c-.89-3.86-19.25-12.68-21.87-12.68h-31.5Z" style="fill: rgb(38, 50, 56); transform-origin: 341.147px 290.8px;" id="el9qau8f77n96" class="animable"></path><g style="clip-path: url(&quot;#freepik--clip-path-5--inject-132&quot;); transform-origin: 341.147px 290.8px;" id="eltkf1spg280f" class="animable"><g id="elu5vlb4b0i1n"><path d="M305.26,304.36H370s9.19-3.06,6.56-14.44c-.89-3.86-19.25-12.68-21.87-12.68h-31.5Z" style="fill: rgb(255, 255, 255); stroke: rgb(38, 50, 56); stroke-linecap: round; stroke-linejoin: round; opacity: 0.2; transform-origin: 341.147px 290.8px;" class="animable"></path></g></g><path d="M305.26,304.36H370s9.19-3.06,6.56-14.44c-.89-3.86-19.25-12.68-21.87-12.68h-31.5Z" style="fill: none; stroke: rgb(38, 50, 56); stroke-linecap: round; stroke-linejoin: round; transform-origin: 341.147px 290.8px;" id="elsc00bni9bp" class="animable"></path><polygon points="233.66 277.24 198.51 304.36 305.26 304.36 322.83 277.24 233.66 277.24" style="fill: rgb(38, 50, 56); stroke: rgb(38, 50, 56); stroke-linecap: round; stroke-linejoin: round; transform-origin: 260.67px 290.8px;" id="elyxy8ypg10z" class="animable"></polygon><polygon points="165.27 324.48 165.27 333.67 171.83 338.48 224.76 338.48 237.01 333.23 237.01 324.48 165.27 324.48" style="fill: rgb(38, 50, 56); stroke: rgb(38, 50, 56); stroke-linecap: round; stroke-linejoin: round; transform-origin: 201.14px 331.48px;" id="elzha5edzhba" class="animable"></polygon><g id="ela5cip5glrdl"><rect x="165.27" y="324.48" width="2.45" height="2.45" style="fill: rgb(255, 255, 255); opacity: 0.3; transform-origin: 166.495px 325.705px;" class="animable"></rect></g><g id="elex727ig1rfm"><rect x="167.97" y="327.19" width="2.45" height="2.45" style="fill: rgb(255, 255, 255); opacity: 0.3; transform-origin: 169.195px 328.415px;" class="animable"></rect></g><g id="elqcdle1v02fo"><rect x="170.68" y="329.89" width="2.45" height="2.45" style="fill: rgb(255, 255, 255); opacity: 0.3; transform-origin: 171.905px 331.115px;" class="animable"></rect></g><g id="elwid3sopzfyn"><rect x="173.38" y="332.6" width="2.45" height="2.45" style="fill: rgb(255, 255, 255); opacity: 0.3; transform-origin: 174.605px 333.825px;" class="animable"></rect></g><g id="elno0fefdsc1"><rect x="234.08" y="324.48" width="2.45" height="2.45" style="fill: rgb(255, 255, 255); opacity: 0.3; transform-origin: 235.305px 325.705px;" class="animable"></rect></g><g id="elxgnq0ek20s"><rect x="231.37" y="327.19" width="2.45" height="2.45" style="fill: rgb(255, 255, 255); opacity: 0.3; transform-origin: 232.595px 328.415px;" class="animable"></rect></g><g id="ely89rl70wvr"><rect x="228.67" y="329.89" width="2.45" height="2.45" style="fill: rgb(255, 255, 255); opacity: 0.3; transform-origin: 229.895px 331.115px;" class="animable"></rect></g><g id="el7gmzpl6hy3w"><rect x="225.97" y="332.6" width="2.45" height="2.45" style="fill: rgb(255, 255, 255); opacity: 0.3; transform-origin: 227.195px 333.825px;" class="animable"></rect></g><g id="elce8gzy5yodg"><rect x="177.14" y="332.6" width="2.45" height="2.45" style="fill: rgb(255, 255, 255); opacity: 0.3; transform-origin: 178.365px 333.825px;" class="animable"></rect></g><g id="elkqhmri31upi"><rect x="180.89" y="332.6" width="2.45" height="2.45" style="fill: rgb(255, 255, 255); opacity: 0.3; transform-origin: 182.115px 333.825px;" class="animable"></rect></g><g id="elsgwt559d3u9"><rect x="184.65" y="332.6" width="2.45" height="2.45" style="fill: rgb(255, 255, 255); opacity: 0.3; transform-origin: 185.875px 333.825px;" class="animable"></rect></g><g id="el9e45nki96rb"><rect x="188.41" y="332.6" width="2.45" height="2.45" style="fill: rgb(255, 255, 255); opacity: 0.3; transform-origin: 189.635px 333.825px;" class="animable"></rect></g><g id="el0334th5sjc3"><rect x="192.16" y="332.6" width="2.45" height="2.45" style="fill: rgb(255, 255, 255); opacity: 0.3; transform-origin: 193.385px 333.825px;" class="animable"></rect></g><g id="elcyr2adbtfbr"><rect x="195.92" y="332.6" width="2.45" height="2.45" style="fill: rgb(255, 255, 255); opacity: 0.3; transform-origin: 197.145px 333.825px;" class="animable"></rect></g><g id="eld7a54tfwu44"><rect x="199.67" y="332.6" width="2.45" height="2.45" style="fill: rgb(255, 255, 255); opacity: 0.3; transform-origin: 200.895px 333.825px;" class="animable"></rect></g><g id="elvrlw7wrvveb"><rect x="203.43" y="332.6" width="2.45" height="2.45" style="fill: rgb(255, 255, 255); opacity: 0.3; transform-origin: 204.655px 333.825px;" class="animable"></rect></g><g id="elic9c62la3j"><rect x="207.19" y="332.6" width="2.45" height="2.45" style="fill: rgb(255, 255, 255); opacity: 0.3; transform-origin: 208.415px 333.825px;" class="animable"></rect></g><g id="elk290pwcxktb"><rect x="210.94" y="332.6" width="2.45" height="2.45" style="fill: rgb(255, 255, 255); opacity: 0.3; transform-origin: 212.165px 333.825px;" class="animable"></rect></g><g id="elbp20ce2a098"><rect x="214.7" y="332.6" width="2.45" height="2.45" style="fill: rgb(255, 255, 255); opacity: 0.3; transform-origin: 215.925px 333.825px;" class="animable"></rect></g><g id="elur36o230cyp"><rect x="218.45" y="332.6" width="2.45" height="2.45" style="fill: rgb(255, 255, 255); opacity: 0.3; transform-origin: 219.675px 333.825px;" class="animable"></rect></g><g id="el7l0rtw92qz"><rect x="222.21" y="332.6" width="2.45" height="2.45" style="fill: rgb(255, 255, 255); opacity: 0.3; transform-origin: 223.435px 333.825px;" class="animable"></rect></g><path d="M262.38,349.85H153.46L152,338.18c-.67,6.42-1,13.25-1.11,18.87l.38,1.55,2.19-4.37h9.34L157,359h86.61l-3.09-4.81h21.9l6.13,3.5h4.37V335.42Z" style="fill: rgb(38, 50, 56); stroke: rgb(38, 50, 56); stroke-linecap: round; stroke-linejoin: round; transform-origin: 211.905px 347.21px;" id="eldcj5cgbli4o" class="animable"></path><path d="M328.05,301.93h-.54a3.4,3.4,0,0,1-3.22-4.46c.67-2.1,1.83-4.22,3.76-4.54,4-.67,15,2.67,15,5s0,3.33-1.33,3.33h-8.33l-6.67,7.34-.14-.12a3.07,3.07,0,0,1,0-4.71A6.91,6.91,0,0,0,328.05,301.93Z" style="fill: rgb(255, 193, 0); transform-origin: 333.585px 300.721px;" id="elx00enfx275r" class="animable"></path><path d="M347.93,304.36h3.66c-.39-5.37-1.92-17.19-7.93-27.12H340C342.11,281.81,347.11,293.6,347.93,304.36Z" style="fill: rgb(38, 50, 56); stroke: rgb(38, 50, 56); stroke-linecap: round; stroke-linejoin: round; transform-origin: 345.795px 290.8px;" id="ell49iiyqiw1e" class="animable"></path><path d="M269.05,284.6l1.34,3.66a8.62,8.62,0,0,0-2.67,6v10.1h-8.21l6.88-19.76Zm-38.33,5c-5.63,3.43-14.13,11-18.26,14.76h27.41l14.18-21.76-9.33.66A58.86,58.86,0,0,0,230.72,289.6Zm56.67-2.67-3.34-.67h-4.66l-1.34,1.34s3.34.33,3.67,2.33a51.37,51.37,0,0,1,.33,6h2.34s0-3.67,1.66-5.33a31.62,31.62,0,0,1,3-2.67Z" style="fill: rgb(255, 255, 255); stroke: rgb(38, 50, 56); stroke-linecap: round; stroke-linejoin: round; transform-origin: 250.755px 293.48px;" id="el26yybnvwxkei" class="animable"></path><path d="M326.58,308.48l.14.12,6.67-7.34h8.33c1.1,0,1.29-.69,1.32-2.25H324.16a3.39,3.39,0,0,0,3.35,2.92h.54a6.91,6.91,0,0,1-1.48,1.84A3.07,3.07,0,0,0,326.58,308.48Z" style="fill: rgb(38, 50, 56); stroke: rgb(38, 50, 56); stroke-linecap: round; stroke-linejoin: round; transform-origin: 333.6px 303.805px;" id="elf53n6g2myss" class="animable"></path><rect x="339.65" y="312.41" width="7.5" height="1.61" style="fill: rgb(38, 50, 56); transform-origin: 343.4px 313.215px;" id="elgswy1bl5ubv" class="animable"></rect><rect x="373.42" y="312.41" width="7.5" height="1.61" style="fill: rgb(38, 50, 56); transform-origin: 377.17px 313.215px;" id="elsji7wh6hhp" class="animable"></rect><path d="M381.45,306s5.43,3.69,8.58,16.62c0,0-13.4,1.6-13.4,38.59" style="fill: none; stroke: rgb(38, 50, 56); stroke-linecap: round; stroke-linejoin: round; transform-origin: 383.33px 333.605px;" id="el33lcupi1kj4" class="animable"></path><path d="M375,362.79H318.78c0,.86,0,1.72,0,2.59,0,1.26,0,2.5-.08,3.72h63.13q-.06-1.83-.06-3.72v-.25Z" style="fill: rgb(38, 50, 56); stroke: rgb(38, 50, 56); stroke-linecap: round; stroke-linejoin: round; transform-origin: 350.265px 365.945px;" id="el2s59y5uphdl" class="animable"></path><path d="M283.38,365.38c0-.87,0-1.73,0-2.59H150.81c0,3.85,0,6.31,0,6.31H283.46C283.41,367.88,283.38,366.64,283.38,365.38Z" style="fill: rgb(38, 50, 56); stroke: rgb(38, 50, 56); stroke-linecap: round; stroke-linejoin: round; transform-origin: 217.135px 365.945px;" id="el6uywn6kvym2" class="animable"></path><path d="M403.52,309.2a3.84,3.84,0,0,0-3.37,5.68l5.72,10.5V310.89a6.69,6.69,0,0,0-.24-1.69h-2.11Z" style="fill: rgb(38, 50, 56); stroke: rgb(38, 50, 56); stroke-linecap: round; stroke-linejoin: round; transform-origin: 402.775px 317.29px;" id="elgjvg9u2c60p" class="animable"></path><path d="M352.05,309.93s12,17.33,0,46.67" style="fill: none; stroke: rgb(38, 50, 56); stroke-linecap: round; stroke-linejoin: round; transform-origin: 354.717px 333.265px;" id="elzut7k8k8idj" class="animable"></path></g><defs>     <filter id="active" height="200%">         <feMorphology in="SourceAlpha" result="DILATED" operator="dilate" radius="2"></feMorphology>                <feFlood flood-color="#32DFEC" flood-opacity="1" result="PINK"></feFlood>        <feComposite in="PINK" in2="DILATED" operator="in" result="OUTLINE"></feComposite>        <feMerge>            <feMergeNode in="OUTLINE"></feMergeNode>            <feMergeNode in="SourceGraphic"></feMergeNode>        </feMerge>    </filter>    <filter id="hover" height="200%">        <feMorphology in="SourceAlpha" result="DILATED" operator="dilate" radius="2"></feMorphology>                <feFlood flood-color="#ff0000" flood-opacity="0.5" result="PINK"></feFlood>        <feComposite in="PINK" in2="DILATED" operator="in" result="OUTLINE"></feComposite>        <feMerge>            <feMergeNode in="OUTLINE"></feMergeNode>            <feMergeNode in="SourceGraphic"></feMergeNode>        </feMerge>            <feColorMatrix type="matrix" values="0   0   0   0   0                0   1   0   0   0                0   0   0   0   0                0   0   0   1   0 "></feColorMatrix>    </filter></defs><defs><clipPath id="freepik--clip-path--inject-132"><rect x="87.05" y="275.2" width="41.18" height="111.84" style="fill:#fff;stroke:#263238;stroke-miterlimit:10"></rect></clipPath><clipPath id="freepik--clip-path-2--inject-132"><ellipse cx="299.79" cy="358.39" rx="19.47" ry="28.65" style="fill:#263238;stroke:#263238;stroke-linecap:round;stroke-linejoin:round"></ellipse></clipPath><clipPath id="freepik--clip-path-3--inject-132"><ellipse cx="393.18" cy="358.39" rx="12.39" ry="28.65" style="fill:#263238;stroke:#263238;stroke-linecap:round;stroke-linejoin:round"></ellipse></clipPath><clipPath id="freepik--clip-path-4--inject-132"><path d="M283.38,365.38c0-22.83,7.94-41.34,17.72-41.34s17.72,18.51,17.72,41.34c0,1.26,0,2.5-.08,3.72h63.13q-.06-1.83-.06-3.72c0-22.83,5.78-41.34,12.91-41.34,4.76,0,8.92,8.27,11.15,20.57V310.89a6.58,6.58,0,0,0-5.38-6.47l-.3-.06c-4.38-.88-12.25-9.19-24.5-19.69S352.5,273.3,352.5,273.3H242a9.43,9.43,0,0,0-5.77,2l-37.69,29.09s-33.69,6.56-41.13,14-6.56,50.74-6.56,50.74H283.46C283.41,367.88,283.38,366.64,283.38,365.38Z" style="fill:#FFC100;stroke:#263238;stroke-linecap:round;stroke-linejoin:round"></path></clipPath><clipPath id="freepik--clip-path-5--inject-132"><path d="M305.26,304.36H370s9.19-3.06,6.56-14.44c-.89-3.86-19.25-12.68-21.87-12.68h-31.5Z" style="fill:#263238;stroke:#263238;stroke-linecap:round;stroke-linejoin:round"></path></clipPath></defs></svg>