<svg xmlns="http://www.w3.org/2000/svg" viewBox="0 0 750 500"><g id="freepik--background-simple--inject-113"><path d="M710.83,305.06c-9.14-40.12-27.66-79.39-49.94-114.69C624.71,133,570.65,82.62,498.72,67.61c-163-34-198,114.89-234.71,134.54S136.06,211.22,86.35,274s-44,161.76-44,161.76H718C719.49,391.93,720.58,347.8,710.83,305.06Z" style="fill:#FFC100"></path><path d="M710.83,305.06c-9.14-40.12-27.66-79.39-49.94-114.69C624.71,133,570.65,82.62,498.72,67.61c-163-34-198,114.89-234.71,134.54S136.06,211.22,86.35,274s-44,161.76-44,161.76H718C719.49,391.93,720.58,347.8,710.83,305.06Z" style="fill:#fff;opacity:0.7000000000000001"></path></g><g id="freepik--Icons--inject-113"><path d="M60.31,339.25A30.36,30.36,0,0,0,64.63,355a61.23,61.23,0,0,0,4.16,5.65,3.68,3.68,0,0,1,.85,3.5A3.22,3.22,0,0,1,64.92,366a7.47,7.47,0,0,1-1.57-1.4,37.26,37.26,0,0,1-9.48-21.4c-1.12-11.18,2.29-20.91,9.6-29.34a4.05,4.05,0,0,1,2.76-1.69,3.27,3.27,0,0,1,3,5.19c-.46.66-1,1.24-1.55,1.86a31.11,31.11,0,0,0-7.3,19.21C60.34,338.64,60.32,338.87,60.31,339.25Z" style="fill:#263238"></path><path d="M78.15,322.77a3.63,3.63,0,0,1-1.1,2.58,20,20,0,0,0-1,26.75c.47.56,1,1.1,1.4,1.69a3.28,3.28,0,0,1-.48,4.44,3.23,3.23,0,0,1-4.4-.1,24.62,24.62,0,0,1-6.14-9.51,26.24,26.24,0,0,1,.85-20.72,25.38,25.38,0,0,1,5.17-7.4,3.26,3.26,0,0,1,3.7-.7A3.13,3.13,0,0,1,78.15,322.77Z" style="fill:#263238"></path><path d="M75.86,339.38a15.57,15.57,0,0,1,5-11.5,3.31,3.31,0,0,1,4.52-.14,3.37,3.37,0,0,1,.29,4.64A16.94,16.94,0,0,0,83.22,336c-1.42,3.48-.63,6.66,1.86,9.44a3.88,3.88,0,0,1,1.33,3.44,3.23,3.23,0,0,1-5.18,2,13.77,13.77,0,0,1-4.1-5.61A15.84,15.84,0,0,1,75.86,339.38Z" style="fill:#263238"></path><path d="M95.37,339.23a3.94,3.94,0,0,1-4,4,4,4,0,0,1-4-3.95,4,4,0,0,1,8-.09Z" style="fill:#263238"></path><path d="M671.58,339.35a30.42,30.42,0,0,0-4.32-15.76,58.64,58.64,0,0,0-4.16-5.65,3.69,3.69,0,0,1-.85-3.51,3.21,3.21,0,0,1,4.72-1.81,7.2,7.2,0,0,1,1.57,1.4,37.26,37.26,0,0,1,9.48,21.4c1.12,11.18-2.29,20.91-9.6,29.34a4,4,0,0,1-2.76,1.68,3.26,3.26,0,0,1-3-5.18c.46-.67,1-1.24,1.55-1.86a31.19,31.19,0,0,0,7.3-19.21C671.55,340,671.57,339.74,671.58,339.35Z" style="fill:#263238"></path><path d="M653.74,355.84a3.59,3.59,0,0,1,1.1-2.58,20,20,0,0,0,.94-26.75c-.46-.56-1-1.1-1.39-1.69a3.28,3.28,0,0,1,.48-4.44,3.23,3.23,0,0,1,4.4.1,24.58,24.58,0,0,1,6.14,9.5,26.26,26.26,0,0,1-.85,20.73,25.39,25.39,0,0,1-5.17,7.39,3.26,3.26,0,0,1-3.7.71A3.14,3.14,0,0,1,653.74,355.84Z" style="fill:#263238"></path><path d="M656,339.23a15.62,15.62,0,0,1-5,11.5,3.3,3.3,0,0,1-4.52.13,3.36,3.36,0,0,1-.29-4.63,17.19,17.19,0,0,0,2.47-3.66c1.41-3.48.63-6.67-1.86-9.44a3.89,3.89,0,0,1-1.33-3.44,3.23,3.23,0,0,1,5.18-2,13.7,13.7,0,0,1,4.1,5.61A15.8,15.8,0,0,1,656,339.23Z" style="fill:#263238"></path><path d="M636.52,339.38a3.93,3.93,0,0,1,4-4,4,4,0,0,1,4,3.94,4,4,0,1,1-8,.1Z" style="fill:#263238"></path><path d="M391.55,153.53a30.48,30.48,0,0,0-15.77,4.32,59.77,59.77,0,0,0-5.64,4.16,3.69,3.69,0,0,1-3.51.85,3.21,3.21,0,0,1-1.81-4.72,7.44,7.44,0,0,1,1.4-1.57,37.39,37.39,0,0,1,21.39-9.48c11.19-1.12,20.91,2.29,29.35,9.6a4.08,4.08,0,0,1,1.68,2.76,3.26,3.26,0,0,1-5.19,3c-.66-.45-1.24-1-1.86-1.54a31,31,0,0,0-19.2-7.3Z" style="fill:#263238"></path><path d="M408,171.37a3.58,3.58,0,0,1-2.57-1.1,20,20,0,0,0-26.75-.94c-.56.46-1.1,1-1.69,1.39a3.29,3.29,0,0,1-4.45-.48,3.24,3.24,0,0,1,.11-4.4,24.58,24.58,0,0,1,9.5-6.14,26.2,26.2,0,0,1,20.72.86,25.08,25.08,0,0,1,7.4,5.16,3.26,3.26,0,0,1,.7,3.7A3.12,3.12,0,0,1,408,171.37Z" style="fill:#263238"></path><path d="M391.43,169.09a15.54,15.54,0,0,1,11.49,5,3.29,3.29,0,0,1,.14,4.52,3.36,3.36,0,0,1-4.63.29,17.44,17.44,0,0,0-3.66-2.47c-3.48-1.41-6.67-.62-9.44,1.86a3.94,3.94,0,0,1-3.44,1.34,3.23,3.23,0,0,1-2-5.19,13.64,13.64,0,0,1,5.61-4.1A15.56,15.56,0,0,1,391.43,169.09Z" style="fill:#263238"></path><path d="M391.57,188.59a3.92,3.92,0,0,1-4-4,4,4,0,0,1,3.94-4,4,4,0,1,1,.09,8Z" style="fill:#263238"></path></g><g id="freepik--City--inject-113"><g style="opacity:0.2"><polyline points="25.99 370.17 57.63 370.17 57.63 84.05 140.85 84.05 140.85 220.23 158.73 220.23 158.73 389.43 179.37 389.43 179.37 136.87 217.88 136.87 217.88 34.53 279.78 34.53 279.78 222.98 303.17 222.98 303.17 148.02 355.44 148.02 355.44 164.52 400.14 164.52 400.14 387.36 418.02 387.36 418.02 346.78 466.86 346.78 466.86 386.67 490.24 386.67 490.24 185.84 569.33 185.84 569.33 374.29 592.03 374.29 592.03 111.56 619.54 111.56 619.54 63.42 633.3 63.42 633.3 35.91 655.31 35.91 655.31 214.04 691.07 214.04 691.07 383.92 718.58 383.92" style="fill:none;stroke:#000;stroke-miterlimit:10"></polyline><rect x="57.63" y="75.11" width="83.22" height="8.94" style="fill:none;stroke:#000;stroke-miterlimit:10"></rect><rect x="179.13" y="136.87" width="38.75" height="4.53" style="fill:none;stroke:#000;stroke-miterlimit:10"></rect><rect x="217.7" y="34.53" width="62.08" height="4.4" style="fill:none;stroke:#000;stroke-miterlimit:10"></rect><rect x="308.09" y="138.67" width="9.04" height="9.34" style="fill:none;stroke:#000;stroke-miterlimit:10"></rect><rect x="336.11" y="142.59" width="4.52" height="5.42" style="fill:none;stroke:#000;stroke-miterlimit:10"></rect><rect x="355.44" y="164.52" width="44.85" height="5.48" style="fill:none;stroke:#000;stroke-miterlimit:10"></rect><rect x="490.24" y="181.76" width="79.08" height="4.09" style="fill:none;stroke:#000;stroke-miterlimit:10"></rect><rect x="510.57" y="173.62" width="31.34" height="8.14" style="fill:none;stroke:#000;stroke-miterlimit:10"></rect><polyline points="535.27 173.92 535.27 166.39 558.17 166.39 558.17 181.46" style="fill:none;stroke:#000;stroke-miterlimit:10"></polyline><polyline points="384.35 162.27 384.35 101.39 456.83 101.39 456.83 151.84 481.76 151.84 481.76 66.02 561.78 66.02 561.78 169.81 586.72 169.81" style="fill:none;stroke:#000;stroke-miterlimit:10"></polyline><polyline points="332.16 132.12 332.16 64.86 282.87 64.86" style="fill:none;stroke:#000;stroke-miterlimit:10"></polyline><polyline points="176.76 148.94 160.52 148.94 160.52 101.97 144.86 101.97" style="fill:none;stroke:#000;stroke-miterlimit:10"></polyline><polyline points="54.99 136.18 41.65 136.18 41.65 318.83" style="fill:none;stroke:#000;stroke-miterlimit:10"></polyline><polyline points="611.07 102.55 611.07 80.51 618.03 80.51" style="fill:none;stroke:#000;stroke-miterlimit:10"></polyline><polyline points="658.04 81.09 682.97 81.09 682.97 173.29 725.3 173.29 725.3 279.98" style="fill:none;stroke:#000;stroke-miterlimit:10"></polyline><rect x="222.57" y="47.46" width="6.22" height="12.18" style="fill:none;stroke:#000;stroke-miterlimit:10"></rect><rect x="233.77" y="47.46" width="6.22" height="12.18" style="fill:none;stroke:#000;stroke-miterlimit:10"></rect><rect x="244.97" y="47.46" width="6.22" height="12.18" style="fill:none;stroke:#000;stroke-miterlimit:10"></rect><rect x="256.17" y="47.46" width="6.22" height="12.18" style="fill:none;stroke:#000;stroke-miterlimit:10"></rect><rect x="267.37" y="47.46" width="6.22" height="12.18" style="fill:none;stroke:#000;stroke-miterlimit:10"></rect><rect x="222.57" y="68.05" width="6.22" height="12.18" style="fill:none;stroke:#000;stroke-miterlimit:10"></rect><rect x="233.77" y="68.05" width="6.22" height="12.18" style="fill:none;stroke:#000;stroke-miterlimit:10"></rect><rect x="244.97" y="68.05" width="6.22" height="12.18" style="fill:none;stroke:#000;stroke-miterlimit:10"></rect><rect x="256.17" y="68.05" width="6.22" height="12.18" style="fill:none;stroke:#000;stroke-miterlimit:10"></rect><rect x="267.37" y="68.05" width="6.22" height="12.18" style="fill:none;stroke:#000;stroke-miterlimit:10"></rect><rect x="222.57" y="88.63" width="6.22" height="12.18" style="fill:none;stroke:#000;stroke-miterlimit:10"></rect><rect x="233.77" y="88.63" width="6.22" height="12.18" style="fill:none;stroke:#000;stroke-miterlimit:10"></rect><rect x="244.97" y="88.63" width="6.22" height="12.18" style="fill:none;stroke:#000;stroke-miterlimit:10"></rect><rect x="256.17" y="88.63" width="6.22" height="12.18" style="fill:none;stroke:#000;stroke-miterlimit:10"></rect><rect x="267.37" y="88.63" width="6.22" height="12.18" style="fill:none;stroke:#000;stroke-miterlimit:10"></rect><rect x="222.57" y="109.22" width="6.22" height="12.18" style="fill:none;stroke:#000;stroke-miterlimit:10"></rect><rect x="233.77" y="109.22" width="6.22" height="12.18" style="fill:none;stroke:#000;stroke-miterlimit:10"></rect><rect x="244.97" y="109.22" width="6.22" height="12.18" style="fill:none;stroke:#000;stroke-miterlimit:10"></rect><rect x="256.17" y="109.22" width="6.22" height="12.18" style="fill:none;stroke:#000;stroke-miterlimit:10"></rect><rect x="267.37" y="109.22" width="6.22" height="12.18" style="fill:none;stroke:#000;stroke-miterlimit:10"></rect><rect x="222.57" y="129.8" width="6.22" height="12.18" style="fill:none;stroke:#000;stroke-miterlimit:10"></rect><rect x="233.77" y="129.8" width="6.22" height="12.18" style="fill:none;stroke:#000;stroke-miterlimit:10"></rect><rect x="244.97" y="129.8" width="6.22" height="12.18" style="fill:none;stroke:#000;stroke-miterlimit:10"></rect><rect x="256.17" y="129.8" width="6.22" height="12.18" style="fill:none;stroke:#000;stroke-miterlimit:10"></rect><rect x="267.37" y="129.8" width="6.22" height="12.18" style="fill:none;stroke:#000;stroke-miterlimit:10"></rect><rect x="222.57" y="150.39" width="6.22" height="12.18" style="fill:none;stroke:#000;stroke-miterlimit:10"></rect><rect x="233.77" y="150.39" width="6.22" height="12.18" style="fill:none;stroke:#000;stroke-miterlimit:10"></rect><rect x="244.97" y="150.39" width="6.22" height="12.18" style="fill:none;stroke:#000;stroke-miterlimit:10"></rect><rect x="256.17" y="150.39" width="6.22" height="12.18" style="fill:none;stroke:#000;stroke-miterlimit:10"></rect><rect x="267.37" y="150.39" width="6.22" height="12.18" style="fill:none;stroke:#000;stroke-miterlimit:10"></rect><rect x="184.38" y="150.39" width="6.22" height="12.18" style="fill:none;stroke:#000;stroke-miterlimit:10"></rect><rect x="195.58" y="150.39" width="6.22" height="12.18" style="fill:none;stroke:#000;stroke-miterlimit:10"></rect><rect x="206.78" y="150.39" width="6.22" height="12.18" style="fill:none;stroke:#000;stroke-miterlimit:10"></rect><rect x="184.38" y="170.39" width="6.22" height="12.18" style="fill:none;stroke:#000;stroke-miterlimit:10"></rect><rect x="195.58" y="170.39" width="6.22" height="12.18" style="fill:none;stroke:#000;stroke-miterlimit:10"></rect><rect x="206.78" y="170.39" width="6.22" height="12.18" style="fill:none;stroke:#000;stroke-miterlimit:10"></rect><rect x="184.38" y="190.4" width="6.22" height="12.18" style="fill:none;stroke:#000;stroke-miterlimit:10"></rect><rect x="195.58" y="190.4" width="6.22" height="12.18" style="fill:none;stroke:#000;stroke-miterlimit:10"></rect><rect x="206.78" y="190.4" width="6.22" height="12.18" style="fill:none;stroke:#000;stroke-miterlimit:10"></rect><rect x="184.38" y="210.4" width="6.22" height="12.18" style="fill:none;stroke:#000;stroke-miterlimit:10"></rect><rect x="195.58" y="210.4" width="6.22" height="12.18" style="fill:none;stroke:#000;stroke-miterlimit:10"></rect><rect x="206.78" y="210.4" width="6.22" height="12.18" style="fill:none;stroke:#000;stroke-miterlimit:10"></rect><rect x="184.38" y="230.41" width="6.22" height="12.18" style="fill:none;stroke:#000;stroke-miterlimit:10"></rect><rect x="195.58" y="230.41" width="6.22" height="12.18" style="fill:none;stroke:#000;stroke-miterlimit:10"></rect><rect x="206.78" y="230.41" width="6.22" height="12.18" style="fill:none;stroke:#000;stroke-miterlimit:10"></rect><rect x="184.38" y="250.41" width="6.22" height="12.18" style="fill:none;stroke:#000;stroke-miterlimit:10"></rect><rect x="195.58" y="250.41" width="6.22" height="12.18" style="fill:none;stroke:#000;stroke-miterlimit:10"></rect><rect x="206.78" y="250.41" width="6.22" height="12.18" style="fill:none;stroke:#000;stroke-miterlimit:10"></rect><rect x="184.38" y="270.42" width="6.22" height="12.18" style="fill:none;stroke:#000;stroke-miterlimit:10"></rect><rect x="195.58" y="270.42" width="6.22" height="12.18" style="fill:none;stroke:#000;stroke-miterlimit:10"></rect><rect x="206.78" y="270.42" width="6.22" height="12.18" style="fill:none;stroke:#000;stroke-miterlimit:10"></rect><rect x="184.38" y="290.42" width="6.22" height="12.18" style="fill:none;stroke:#000;stroke-miterlimit:10"></rect><rect x="195.58" y="290.42" width="6.22" height="12.18" style="fill:none;stroke:#000;stroke-miterlimit:10"></rect><rect x="206.78" y="290.42" width="6.22" height="12.18" style="fill:none;stroke:#000;stroke-miterlimit:10"></rect><rect x="184.38" y="310.43" width="6.22" height="12.18" style="fill:none;stroke:#000;stroke-miterlimit:10"></rect><rect x="195.58" y="310.43" width="6.22" height="12.18" style="fill:none;stroke:#000;stroke-miterlimit:10"></rect><rect x="206.78" y="310.43" width="6.22" height="12.18" style="fill:none;stroke:#000;stroke-miterlimit:10"></rect><rect x="184.38" y="330.43" width="6.22" height="12.18" style="fill:none;stroke:#000;stroke-miterlimit:10"></rect><rect x="195.58" y="330.43" width="6.22" height="12.18" style="fill:none;stroke:#000;stroke-miterlimit:10"></rect><rect x="206.78" y="330.43" width="6.22" height="12.18" style="fill:none;stroke:#000;stroke-miterlimit:10"></rect><rect x="184.38" y="350.44" width="6.22" height="12.18" style="fill:none;stroke:#000;stroke-miterlimit:10"></rect><rect x="195.58" y="350.44" width="6.22" height="12.18" style="fill:none;stroke:#000;stroke-miterlimit:10"></rect><rect x="206.78" y="350.44" width="6.22" height="12.18" style="fill:none;stroke:#000;stroke-miterlimit:10"></rect><rect x="284.25" y="232.73" width="6.22" height="12.18" style="fill:none;stroke:#000;stroke-miterlimit:10"></rect><rect x="295.45" y="232.73" width="6.22" height="12.18" style="fill:none;stroke:#000;stroke-miterlimit:10"></rect><rect x="284.25" y="252.73" width="6.22" height="12.18" style="fill:none;stroke:#000;stroke-miterlimit:10"></rect><rect x="295.45" y="252.73" width="6.22" height="12.18" style="fill:none;stroke:#000;stroke-miterlimit:10"></rect><rect x="284.25" y="272.74" width="6.22" height="12.18" style="fill:none;stroke:#000;stroke-miterlimit:10"></rect><rect x="295.45" y="272.74" width="6.22" height="12.18" style="fill:none;stroke:#000;stroke-miterlimit:10"></rect><rect x="284.25" y="292.74" width="6.22" height="12.18" style="fill:none;stroke:#000;stroke-miterlimit:10"></rect><rect x="295.45" y="292.74" width="6.22" height="12.18" style="fill:none;stroke:#000;stroke-miterlimit:10"></rect><rect x="284.25" y="312.75" width="6.22" height="12.18" style="fill:none;stroke:#000;stroke-miterlimit:10"></rect><rect x="295.45" y="312.75" width="6.22" height="12.18" style="fill:none;stroke:#000;stroke-miterlimit:10"></rect><rect x="284.25" y="332.75" width="6.22" height="12.18" style="fill:none;stroke:#000;stroke-miterlimit:10"></rect><rect x="295.45" y="332.75" width="6.22" height="12.18" style="fill:none;stroke:#000;stroke-miterlimit:10"></rect><rect x="284.25" y="352.76" width="6.22" height="12.18" style="fill:none;stroke:#000;stroke-miterlimit:10"></rect><rect x="295.45" y="352.76" width="6.22" height="12.18" style="fill:none;stroke:#000;stroke-miterlimit:10"></rect><rect x="222.57" y="170.97" width="6.22" height="12.18" style="fill:none;stroke:#000;stroke-miterlimit:10"></rect><rect x="233.77" y="170.97" width="6.22" height="12.18" style="fill:none;stroke:#000;stroke-miterlimit:10"></rect><rect x="244.97" y="170.97" width="6.22" height="12.18" style="fill:none;stroke:#000;stroke-miterlimit:10"></rect><rect x="256.17" y="170.97" width="6.22" height="12.18" style="fill:none;stroke:#000;stroke-miterlimit:10"></rect><rect x="267.37" y="170.97" width="6.22" height="12.18" style="fill:none;stroke:#000;stroke-miterlimit:10"></rect><rect x="222.57" y="191.56" width="6.22" height="12.18" style="fill:none;stroke:#000;stroke-miterlimit:10"></rect><rect x="233.77" y="191.56" width="6.22" height="12.18" style="fill:none;stroke:#000;stroke-miterlimit:10"></rect><rect x="244.97" y="191.56" width="6.22" height="12.18" style="fill:none;stroke:#000;stroke-miterlimit:10"></rect><rect x="256.17" y="191.56" width="6.22" height="12.18" style="fill:none;stroke:#000;stroke-miterlimit:10"></rect><rect x="267.37" y="191.56" width="6.22" height="12.18" style="fill:none;stroke:#000;stroke-miterlimit:10"></rect><rect x="222.57" y="212.14" width="6.22" height="12.18" style="fill:none;stroke:#000;stroke-miterlimit:10"></rect><rect x="233.77" y="212.14" width="6.22" height="12.18" style="fill:none;stroke:#000;stroke-miterlimit:10"></rect><rect x="244.97" y="212.14" width="6.22" height="12.18" style="fill:none;stroke:#000;stroke-miterlimit:10"></rect><rect x="256.17" y="212.14" width="6.22" height="12.18" style="fill:none;stroke:#000;stroke-miterlimit:10"></rect><rect x="267.37" y="212.14" width="6.22" height="12.18" style="fill:none;stroke:#000;stroke-miterlimit:10"></rect><rect x="222.57" y="232.73" width="6.22" height="12.18" style="fill:none;stroke:#000;stroke-miterlimit:10"></rect><rect x="233.77" y="232.73" width="6.22" height="12.18" style="fill:none;stroke:#000;stroke-miterlimit:10"></rect><rect x="244.97" y="232.73" width="6.22" height="12.18" style="fill:none;stroke:#000;stroke-miterlimit:10"></rect><rect x="256.17" y="232.73" width="6.22" height="12.18" style="fill:none;stroke:#000;stroke-miterlimit:10"></rect><rect x="267.37" y="232.73" width="6.22" height="12.18" style="fill:none;stroke:#000;stroke-miterlimit:10"></rect><rect x="222.57" y="253.31" width="6.22" height="12.18" style="fill:none;stroke:#000;stroke-miterlimit:10"></rect><rect x="233.77" y="253.31" width="6.22" height="12.18" style="fill:none;stroke:#000;stroke-miterlimit:10"></rect><rect x="244.97" y="253.31" width="6.22" height="12.18" style="fill:none;stroke:#000;stroke-miterlimit:10"></rect><rect x="256.17" y="253.31" width="6.22" height="12.18" style="fill:none;stroke:#000;stroke-miterlimit:10"></rect><rect x="267.37" y="253.31" width="6.22" height="12.18" style="fill:none;stroke:#000;stroke-miterlimit:10"></rect><rect x="222.57" y="273.9" width="6.22" height="12.18" style="fill:none;stroke:#000;stroke-miterlimit:10"></rect><rect x="233.77" y="273.9" width="6.22" height="12.18" style="fill:none;stroke:#000;stroke-miterlimit:10"></rect><rect x="244.97" y="273.9" width="6.22" height="12.18" style="fill:none;stroke:#000;stroke-miterlimit:10"></rect><rect x="256.17" y="273.9" width="6.22" height="12.18" style="fill:none;stroke:#000;stroke-miterlimit:10"></rect><rect x="267.37" y="273.9" width="6.22" height="12.18" style="fill:none;stroke:#000;stroke-miterlimit:10"></rect><rect x="222.57" y="294.48" width="6.22" height="12.18" style="fill:none;stroke:#000;stroke-miterlimit:10"></rect><rect x="233.77" y="294.48" width="6.22" height="12.18" style="fill:none;stroke:#000;stroke-miterlimit:10"></rect><rect x="244.97" y="294.48" width="6.22" height="12.18" style="fill:none;stroke:#000;stroke-miterlimit:10"></rect><rect x="256.17" y="294.48" width="6.22" height="12.18" style="fill:none;stroke:#000;stroke-miterlimit:10"></rect><rect x="267.37" y="294.48" width="6.22" height="12.18" style="fill:none;stroke:#000;stroke-miterlimit:10"></rect><rect x="222.57" y="315.07" width="6.22" height="12.18" style="fill:none;stroke:#000;stroke-miterlimit:10"></rect><rect x="233.77" y="315.07" width="6.22" height="12.18" style="fill:none;stroke:#000;stroke-miterlimit:10"></rect><rect x="244.97" y="315.07" width="6.22" height="12.18" style="fill:none;stroke:#000;stroke-miterlimit:10"></rect><rect x="256.17" y="315.07" width="6.22" height="12.18" style="fill:none;stroke:#000;stroke-miterlimit:10"></rect><rect x="267.37" y="315.07" width="6.22" height="12.18" style="fill:none;stroke:#000;stroke-miterlimit:10"></rect><rect x="222.57" y="335.65" width="6.22" height="12.18" style="fill:none;stroke:#000;stroke-miterlimit:10"></rect><rect x="233.77" y="335.65" width="6.22" height="12.18" style="fill:none;stroke:#000;stroke-miterlimit:10"></rect><rect x="244.97" y="335.65" width="6.22" height="12.18" style="fill:none;stroke:#000;stroke-miterlimit:10"></rect><rect x="256.17" y="335.65" width="6.22" height="12.18" style="fill:none;stroke:#000;stroke-miterlimit:10"></rect><rect x="267.37" y="335.65" width="6.22" height="12.18" style="fill:none;stroke:#000;stroke-miterlimit:10"></rect><rect x="222.57" y="356.81" width="6.22" height="12.18" style="fill:none;stroke:#000;stroke-miterlimit:10"></rect><rect x="233.77" y="356.81" width="6.22" height="12.18" style="fill:none;stroke:#000;stroke-miterlimit:10"></rect><rect x="244.97" y="356.81" width="6.22" height="12.18" style="fill:none;stroke:#000;stroke-miterlimit:10"></rect><rect x="256.17" y="356.81" width="6.22" height="12.18" style="fill:none;stroke:#000;stroke-miterlimit:10"></rect><rect x="267.37" y="356.81" width="6.22" height="12.18" style="fill:none;stroke:#000;stroke-miterlimit:10"></rect><line x1="217.88" y1="141.4" x2="217.88" y2="389.58" style="fill:none;stroke:#000;stroke-miterlimit:10"></line><line x1="313.02" y1="152.99" x2="313.02" y2="386.1" style="fill:none;stroke:#000;stroke-miterlimit:10"></line><line x1="325.2" y1="152.99" x2="325.2" y2="386.1" style="fill:none;stroke:#000;stroke-miterlimit:10"></line><line x1="337.38" y1="152.99" x2="337.38" y2="386.1" style="fill:none;stroke:#000;stroke-miterlimit:10"></line><line x1="349.55" y1="152.99" x2="349.55" y2="386.1" style="fill:none;stroke:#000;stroke-miterlimit:10"></line><line x1="361.73" y1="176.19" x2="361.73" y2="386.1" style="fill:none;stroke:#000;stroke-miterlimit:10"></line><line x1="373.91" y1="176.19" x2="373.91" y2="386.1" style="fill:none;stroke:#000;stroke-miterlimit:10"></line><line x1="386.09" y1="176.19" x2="386.09" y2="386.1" style="fill:none;stroke:#000;stroke-miterlimit:10"></line><line x1="60.79" y1="97.33" x2="136.75" y2="97.33" style="fill:none;stroke:#000;stroke-miterlimit:10"></line><line x1="60.79" y1="112.4" x2="136.75" y2="112.4" style="fill:none;stroke:#000;stroke-miterlimit:10"></line><line x1="60.79" y1="127.48" x2="136.75" y2="127.48" style="fill:none;stroke:#000;stroke-miterlimit:10"></line><line x1="60.79" y1="142.56" x2="136.75" y2="142.56" style="fill:none;stroke:#000;stroke-miterlimit:10"></line><line x1="60.79" y1="157.63" x2="136.75" y2="157.63" style="fill:none;stroke:#000;stroke-miterlimit:10"></line><line x1="60.79" y1="172.71" x2="136.75" y2="172.71" style="fill:none;stroke:#000;stroke-miterlimit:10"></line><line x1="60.79" y1="187.79" x2="136.75" y2="187.79" style="fill:none;stroke:#000;stroke-miterlimit:10"></line><line x1="60.79" y1="202.86" x2="136.75" y2="202.86" style="fill:none;stroke:#000;stroke-miterlimit:10"></line><line x1="60.79" y1="217.94" x2="136.75" y2="217.94" style="fill:none;stroke:#000;stroke-miterlimit:10"></line><line x1="60.79" y1="233.02" x2="136.75" y2="233.02" style="fill:none;stroke:#000;stroke-miterlimit:10"></line><line x1="60.79" y1="248.09" x2="136.75" y2="248.09" style="fill:none;stroke:#000;stroke-miterlimit:10"></line><line x1="60.79" y1="263.17" x2="136.75" y2="263.17" style="fill:none;stroke:#000;stroke-miterlimit:10"></line><line x1="60.79" y1="278.24" x2="136.75" y2="278.24" style="fill:none;stroke:#000;stroke-miterlimit:10"></line><line x1="60.79" y1="293.32" x2="136.75" y2="293.32" style="fill:none;stroke:#000;stroke-miterlimit:10"></line><line x1="60.79" y1="308.4" x2="136.75" y2="308.4" style="fill:none;stroke:#000;stroke-miterlimit:10"></line><line x1="60.79" y1="323.47" x2="136.75" y2="323.47" style="fill:none;stroke:#000;stroke-miterlimit:10"></line><line x1="60.79" y1="338.55" x2="136.75" y2="338.55" style="fill:none;stroke:#000;stroke-miterlimit:10"></line><line x1="60.79" y1="353.63" x2="136.75" y2="353.63" style="fill:none;stroke:#000;stroke-miterlimit:10"></line><line x1="60.79" y1="368.7" x2="136.75" y2="368.7" style="fill:none;stroke:#000;stroke-miterlimit:10"></line><line x1="60.79" y1="383.78" x2="136.75" y2="383.78" style="fill:none;stroke:#000;stroke-miterlimit:10"></line><line x1="60.79" y1="398.85" x2="136.75" y2="398.85" style="fill:none;stroke:#000;stroke-miterlimit:10"></line><line x1="70.64" y1="74.71" x2="70.64" y2="402.33" style="fill:none;stroke:#000;stroke-miterlimit:10"></line><polyline points="592.51 139.08 609.33 139.08 609.33 147.2 592.51 147.2" style="fill:none;stroke:#000;stroke-miterlimit:10"></polyline><polyline points="690.51 230.12 671.38 230.12 671.38 238.23 690.51 238.23" style="fill:none;stroke:#000;stroke-miterlimit:10"></polyline><polyline points="690.51 249.25 671.38 249.25 671.38 257.37 690.51 257.37" style="fill:none;stroke:#000;stroke-miterlimit:10"></polyline><polyline points="690.51 268.39 671.38 268.39 671.38 276.5 690.51 276.5" style="fill:none;stroke:#000;stroke-miterlimit:10"></polyline><polyline points="690.51 287.52 671.38 287.52 671.38 295.64 690.51 295.64" style="fill:none;stroke:#000;stroke-miterlimit:10"></polyline><polyline points="690.51 306.66 671.38 306.66 671.38 314.77 690.51 314.77" style="fill:none;stroke:#000;stroke-miterlimit:10"></polyline><polyline points="690.51 325.79 671.38 325.79 671.38 333.91 690.51 333.91" style="fill:none;stroke:#000;stroke-miterlimit:10"></polyline><polyline points="690.51 344.93 671.38 344.93 671.38 353.05 690.51 353.05" style="fill:none;stroke:#000;stroke-miterlimit:10"></polyline><polyline points="690.51 364.06 671.38 364.06 671.38 372.18 690.51 372.18" style="fill:none;stroke:#000;stroke-miterlimit:10"></polyline><polyline points="592.51 161.11 609.33 161.11 609.33 169.23 592.51 169.23" style="fill:none;stroke:#000;stroke-miterlimit:10"></polyline><polyline points="592.51 183.15 609.33 183.15 609.33 191.27 592.51 191.27" style="fill:none;stroke:#000;stroke-miterlimit:10"></polyline><polyline points="592.51 205.18 609.33 205.18 609.33 213.3 592.51 213.3" style="fill:none;stroke:#000;stroke-miterlimit:10"></polyline><polyline points="592.51 227.22 609.33 227.22 609.33 235.34 592.51 235.34" style="fill:none;stroke:#000;stroke-miterlimit:10"></polyline><polyline points="592.51 249.25 609.33 249.25 609.33 257.37 592.51 257.37" style="fill:none;stroke:#000;stroke-miterlimit:10"></polyline><polyline points="592.51 271.29 609.33 271.29 609.33 279.4 592.51 279.4" style="fill:none;stroke:#000;stroke-miterlimit:10"></polyline><polyline points="592.51 293.32 609.33 293.32 609.33 301.44 592.51 301.44" style="fill:none;stroke:#000;stroke-miterlimit:10"></polyline><polyline points="592.51 315.36 609.33 315.36 609.33 323.47 592.51 323.47" style="fill:none;stroke:#000;stroke-miterlimit:10"></polyline><polyline points="592.51 337.39 609.33 337.39 609.33 345.51 592.51 345.51" style="fill:none;stroke:#000;stroke-miterlimit:10"></polyline><rect x="492.78" y="191.85" width="73.06" height="6.96" style="fill:none;stroke:#000;stroke-miterlimit:10"></rect><rect x="492.78" y="204.02" width="73.06" height="6.96" style="fill:none;stroke:#000;stroke-miterlimit:10"></rect><rect x="492.78" y="216.2" width="73.06" height="6.96" style="fill:none;stroke:#000;stroke-miterlimit:10"></rect><rect x="492.78" y="228.38" width="73.06" height="6.96" style="fill:none;stroke:#000;stroke-miterlimit:10"></rect><rect x="492.78" y="240.55" width="73.06" height="6.96" style="fill:none;stroke:#000;stroke-miterlimit:10"></rect><rect x="492.78" y="252.73" width="73.06" height="6.96" style="fill:none;stroke:#000;stroke-miterlimit:10"></rect><rect x="492.78" y="264.91" width="73.06" height="6.96" style="fill:none;stroke:#000;stroke-miterlimit:10"></rect><rect x="492.78" y="277.08" width="73.06" height="6.96" style="fill:none;stroke:#000;stroke-miterlimit:10"></rect><rect x="492.78" y="289.26" width="73.06" height="6.96" style="fill:none;stroke:#000;stroke-miterlimit:10"></rect><rect x="492.78" y="301.44" width="73.06" height="6.96" style="fill:none;stroke:#000;stroke-miterlimit:10"></rect><rect x="492.78" y="313.62" width="73.06" height="6.96" style="fill:none;stroke:#000;stroke-miterlimit:10"></rect><rect x="492.78" y="325.79" width="73.06" height="6.96" style="fill:none;stroke:#000;stroke-miterlimit:10"></rect><rect x="492.78" y="337.97" width="73.06" height="6.96" style="fill:none;stroke:#000;stroke-miterlimit:10"></rect><rect x="492.78" y="350.15" width="73.06" height="6.96" style="fill:none;stroke:#000;stroke-miterlimit:10"></rect><rect x="492.78" y="362.32" width="73.06" height="6.96" style="fill:none;stroke:#000;stroke-miterlimit:10"></rect><rect x="492.78" y="374.5" width="73.06" height="6.96" style="fill:none;stroke:#000;stroke-miterlimit:10"></rect><rect x="492.78" y="386.68" width="73.06" height="6.96" style="fill:none;stroke:#000;stroke-miterlimit:10"></rect><line x1="619.77" y1="119.94" x2="619.77" y2="389" style="fill:none;stroke:#000;stroke-miterlimit:10"></line><line x1="634.84" y1="68.92" x2="634.84" y2="389" style="fill:none;stroke:#000;stroke-miterlimit:10"></line><rect x="424.94" y="327.53" width="36.53" height="19.14" style="fill:none;stroke:#000;stroke-miterlimit:10"></rect><rect x="433.63" y="293.9" width="19.14" height="33.63" style="fill:none;stroke:#000;stroke-miterlimit:10"></rect><line x1="279.78" y1="222.98" x2="279.78" y2="389.12" style="fill:none;stroke:#000;stroke-miterlimit:10"></line><line x1="489.61" y1="204.78" x2="400.9" y2="204.78" style="fill:none;stroke:#000;stroke-miterlimit:10"></line><line x1="489.61" y1="214.69" x2="400.9" y2="214.69" style="fill:none;stroke:#000;stroke-miterlimit:10"></line><rect x="404.86" y="222.12" width="13.53" height="9.91" style="fill:none;stroke:#000;stroke-miterlimit:10"></rect><rect x="421.55" y="222.12" width="13.53" height="9.91" style="fill:none;stroke:#000;stroke-miterlimit:10"></rect><rect x="438.24" y="222.12" width="13.53" height="9.91" style="fill:none;stroke:#000;stroke-miterlimit:10"></rect><rect x="454.93" y="222.12" width="13.53" height="9.91" style="fill:none;stroke:#000;stroke-miterlimit:10"></rect><rect x="471.62" y="222.12" width="13.53" height="9.91" style="fill:none;stroke:#000;stroke-miterlimit:10"></rect><rect x="404.86" y="237.48" width="13.53" height="9.91" style="fill:none;stroke:#000;stroke-miterlimit:10"></rect><rect x="421.55" y="237.48" width="13.53" height="9.91" style="fill:none;stroke:#000;stroke-miterlimit:10"></rect><rect x="438.24" y="237.48" width="13.53" height="9.91" style="fill:none;stroke:#000;stroke-miterlimit:10"></rect><rect x="454.93" y="237.48" width="13.53" height="9.91" style="fill:none;stroke:#000;stroke-miterlimit:10"></rect><rect x="471.62" y="237.48" width="13.53" height="9.91" style="fill:none;stroke:#000;stroke-miterlimit:10"></rect><rect x="404.86" y="252.84" width="13.53" height="9.91" style="fill:none;stroke:#000;stroke-miterlimit:10"></rect><rect x="421.55" y="252.84" width="13.53" height="9.91" style="fill:none;stroke:#000;stroke-miterlimit:10"></rect><rect x="438.24" y="252.84" width="13.53" height="9.91" style="fill:none;stroke:#000;stroke-miterlimit:10"></rect><rect x="454.93" y="252.84" width="13.53" height="9.91" style="fill:none;stroke:#000;stroke-miterlimit:10"></rect><rect x="471.62" y="252.84" width="13.53" height="9.91" style="fill:none;stroke:#000;stroke-miterlimit:10"></rect><rect x="404.86" y="280.6" width="13.53" height="9.91" style="fill:none;stroke:#000;stroke-miterlimit:10"></rect><rect x="421.55" y="280.6" width="13.53" height="9.91" style="fill:none;stroke:#000;stroke-miterlimit:10"></rect><rect x="438.24" y="280.6" width="13.53" height="9.91" style="fill:none;stroke:#000;stroke-miterlimit:10"></rect><rect x="454.93" y="280.6" width="13.53" height="9.91" style="fill:none;stroke:#000;stroke-miterlimit:10"></rect><rect x="471.62" y="280.6" width="13.53" height="9.91" style="fill:none;stroke:#000;stroke-miterlimit:10"></rect></g></g><g id="freepik--Floor--inject-113"><line x1="16.84" y1="435.39" x2="721.65" y2="435.39" style="fill:none;stroke:#263238;stroke-linecap:round;stroke-linejoin:round"></line></g><g id="freepik--Car--inject-113"><path d="M572.6,323.22c-12.86,0-23.29,25.11-23.29,56.08s10.43,56.09,23.29,56.09h21V323.22Z" style="fill:#263238;stroke:#263238;stroke-linecap:round;stroke-linejoin:round"></path><ellipse cx="593.72" cy="379.3" rx="16.87" ry="56.08" style="fill:#263238;stroke:#263238;stroke-linecap:round;stroke-linejoin:round"></ellipse><path d="M607.1,379.3c0,19.78-3.63,36.47-8.59,41.65a4.61,4.61,0,0,1-3.26,1.66c-3,0-5.77-4.11-7.86-10.89-2.45-7.93-4-19.52-4-32.42,0-4.24.17-8.33.48-12.2a91.59,91.59,0,0,1,4-21.67c2-5.9,4.59-9.43,7.38-9.43,1.46,0,2.87,1,4.16,2.75,3.16,4.34,5.69,13.48,6.9,25A149,149,0,0,1,607.1,379.3Z" style="fill:#ccc;stroke:#263238;stroke-linecap:round;stroke-linejoin:round"></path><path d="M606.31,363.74l-6.18,14.71L598.51,421a4.61,4.61,0,0,1-3.26,1.66c-3,0-5.77-4.11-7.86-10.89l7.86-32.42-11.37-12.2a91.59,91.59,0,0,1,4-21.67L599,372.91l.39-34.16C602.57,343.09,605.1,352.23,606.31,363.74Z" style="fill:#fff;stroke:#263238;stroke-linecap:round;stroke-linejoin:round"></path><path d="M145.27,407.57c4,16.63,11.53,27.82,20.11,27.82h27.54c8.57,0,16.06-11.17,20.1-27.79C187.44,407.74,162.69,407.77,145.27,407.57Z" style="fill:#263238;stroke:#263238;stroke-linecap:round;stroke-linejoin:round"></path><path d="M401.71,407.57c4,16.63,11.53,27.82,20.11,27.82h27.54c8.58,0,16.07-11.17,20.11-27.79C443.88,407.74,419.14,407.77,401.71,407.57Z" style="fill:#263238;stroke:#263238;stroke-linecap:round;stroke-linejoin:round"></path><path d="M438.34,212.17S353.66,200.63,278,225,126.54,311,121.41,328.94s-5.78,37.85-3.85,48.76,5.77,19.89,4.49,24.38-6.42,1.92-1.28,4.49,204.66,0,204.66,0,6.41-1.28,9-5.78,5.77-60.94,17.32-72.49,26.95-10.27,31.44,13.47S387,407.53,387,407.53h193.3s-8.52-58.38,11.55-78.59c7.08-7.13,19.76,7.21,19.76,17.43,0,19.42-2.44,57.63-2.44,57.63a23.53,23.53,0,0,0,6.42-11.55c1.92-7.69,5.13-49.4,3.85-64.79s.64-20.53-6.42-28.87-24.14-30-38.49-40.42C549.88,240.44,488.38,213.46,438.34,212.17Z" style="fill:#fff;stroke:#263238;stroke-linecap:round;stroke-linejoin:round"></path><path d="M284.38,337.11c-4.17-.46-139.87,0-145,0s-11.58-.93-15.28,9.72S119.51,383,120.43,389a5.82,5.82,0,0,1,0,1.27c1.33,5.11,2.31,9.23,1.57,11.83-1.28,4.49-6.42,1.92-1.28,4.49,4.22,2.11,140.1.75,188.08.2,1.69-2.4,3.41-7.24,1.46-16.4C307.07,375.09,292.72,338,284.38,337.11Z" style="fill:#ccc;stroke:#263238;stroke-linecap:round;stroke-linejoin:round"></path><path d="M281.14,334.33s-35.66-2.32-38,2.32,14.82,17.13,20.38,18.06,19.45-6.49,22.23-12S286.69,334.79,281.14,334.33Z" style="fill:#fff;stroke:#263238;stroke-linecap:round;stroke-linejoin:round"></path><path d="M123.11,334.33s23-2.32,24.51,2.32-9.57,17.13-13.15,18.06-12.56-6.49-14.35-12S119.52,334.79,123.11,334.33Z" style="fill:#fff;stroke:#263238;stroke-linecap:round;stroke-linejoin:round"></path><path d="M421.21,348.47H370.35L390,286c2-6.47,8.93-11.72,15.4-11.72h27.42c6.48,0,10.08,5.25,8,11.72Z" style="fill:#ccc;stroke:#263238;stroke-linecap:round;stroke-linejoin:round"></path><path d="M433.64,271.84H406.73c-2.63,0-4.09-2.13-3.27-4.76l3.27-10.42A7.07,7.07,0,0,1,413,251.9H439.9c2.62,0,4.09,2.13,3.26,4.76l-3.27,10.42A7,7,0,0,1,433.64,271.84Z" style="fill:#ccc;stroke:#263238;stroke-linecap:round;stroke-linejoin:round"></path><polyline points="394.69 286.27 401.29 295.89 386.73 342.29" style="fill:none;stroke:#263238;stroke-linecap:round;stroke-linejoin:round"></polyline><polyline points="435.24 286.27 422.6 295.89 408.03 342.29" style="fill:none;stroke:#263238;stroke-linecap:round;stroke-linejoin:round"></polyline><line x1="405.99" y1="296.24" x2="417.33" y2="296.24" style="fill:none;stroke:#263238;stroke-linecap:round;stroke-linejoin:round"></line><line x1="402.33" y1="307.92" x2="413.67" y2="307.92" style="fill:none;stroke:#263238;stroke-linecap:round;stroke-linejoin:round"></line><line x1="398.66" y1="319.61" x2="410" y2="319.61" style="fill:none;stroke:#263238;stroke-linecap:round;stroke-linejoin:round"></line><line x1="394.99" y1="331.29" x2="406.33" y2="331.29" style="fill:none;stroke:#263238;stroke-linecap:round;stroke-linejoin:round"></line><path d="M511.6,348.47H460.73L480.36,286c2-6.47,8.92-11.72,15.4-11.72h27.42c6.47,0,10.07,5.25,8,11.72Z" style="fill:#ccc;stroke:#263238;stroke-linecap:round;stroke-linejoin:round"></path><path d="M524,271.84H497.11c-2.63,0-4.09-2.13-3.26-4.76l3.27-10.42a7,7,0,0,1,6.25-4.76h26.91c2.63,0,4.09,2.13,3.27,4.76l-3.27,10.42A7.07,7.07,0,0,1,524,271.84Z" style="fill:#ccc;stroke:#263238;stroke-linecap:round;stroke-linejoin:round"></path><polyline points="485.07 286.27 491.67 295.89 477.11 342.29" style="fill:none;stroke:#263238;stroke-linecap:round;stroke-linejoin:round"></polyline><polyline points="525.63 286.27 512.98 295.89 498.42 342.29" style="fill:none;stroke:#263238;stroke-linecap:round;stroke-linejoin:round"></polyline><line x1="496.38" y1="296.24" x2="507.72" y2="296.24" style="fill:none;stroke:#263238;stroke-linecap:round;stroke-linejoin:round"></line><line x1="492.71" y1="307.92" x2="504.05" y2="307.92" style="fill:none;stroke:#263238;stroke-linecap:round;stroke-linejoin:round"></line><line x1="489.04" y1="319.61" x2="500.38" y2="319.61" style="fill:none;stroke:#263238;stroke-linecap:round;stroke-linejoin:round"></line><line x1="485.37" y1="331.29" x2="496.71" y2="331.29" style="fill:none;stroke:#263238;stroke-linecap:round;stroke-linejoin:round"></line><path d="M462.49,343.32H378.32a3.81,3.81,0,0,1-3.81-3.81v-7.16a3.81,3.81,0,0,1,3.81-3.81H467Z" style="fill:#ccc;stroke:#263238;stroke-linecap:round;stroke-linejoin:round"></path><path d="M378.32,328.54h34.55a2.77,2.77,0,0,1,2.77,2.77v9.24a2.77,2.77,0,0,1-2.77,2.77H378.32a3.81,3.81,0,0,1-3.81-3.81v-7.16A3.81,3.81,0,0,1,378.32,328.54Z" style="fill:#ccc;stroke:#263238;stroke-linecap:round;stroke-linejoin:round"></path><path d="M513,354.83H335.33a4,4,0,0,1-3.95-3.95h0a4,4,0,0,1,3.95-3.95H513a4,4,0,0,1,4,3.95h0A4,4,0,0,1,513,354.83Z" style="fill:#ccc;stroke:#263238;stroke-linecap:round;stroke-linejoin:round"></path><path d="M617.45,306.23H610a5.15,5.15,0,0,0,0,10.3h8.89C618.68,312.39,618.45,309.23,617.45,306.23Z" style="fill:#FFC100;stroke:#263238;stroke-linecap:round;stroke-linejoin:round"></path><path d="M555.13,284.31s23.62-2.78,25-6.94-2.78-8.34-9.27-13.44" style="fill:none;stroke:#8f8f8f;stroke-linecap:round;stroke-linejoin:round"></path><path d="M415,316.27s1.39,7,3.71,9.26S554.2,402,554.2,402" style="fill:none;stroke:#8f8f8f;stroke-linecap:round;stroke-linejoin:round"></path><path d="M529.66,405.19s-104-28.72-111.9-34.27-25.94-44.46-31-55.11-5.09-20.85-3.7-22.7" style="fill:none;stroke:#8f8f8f;stroke-linecap:round;stroke-linejoin:round"></path><path d="M476,224.48s-18.41-4.09-36.82,5.11-48.06,44-51.64,52.67" style="fill:none;stroke:#8f8f8f;stroke-linecap:round;stroke-linejoin:round"></path><path d="M414.65,309.87s0-6.65,1.53-7.67,129.05-16.36,129.05-16.36" style="fill:none;stroke:#8f8f8f;stroke-linecap:round;stroke-linejoin:round"></path><path d="M351.73,328.3c-11.55,11.55-14.76,68-17.32,72.49s-9,5.78-9,5.78l-11.79.14c4,17.11,11.59,28.68,20.32,28.68H361.5V323.22h-3A27.49,27.49,0,0,0,351.73,328.3Z" style="fill:#263238;stroke:#263238;stroke-linecap:round;stroke-linejoin:round"></path><path d="M361.5,323.22a11.25,11.25,0,0,0-6.47,2.21,29.39,29.39,0,0,0-2.62,2.22,27,27,0,0,0-2.88,3.54c-5.63,9.2-9,29.52-11.3,45.89,0,.74,0,1.48,0,2.22,0,31,10.42,56.09,23.29,56.09s23.29-25.11,23.29-56.09S374.36,323.22,361.5,323.22Z" style="fill:#263238;stroke:#263238;stroke-linecap:round;stroke-linejoin:round"></path><path d="M380,379.3c0,20.24-5.24,37.24-12.33,42a7.22,7.22,0,0,1-4,1.32c-4.43,0-8.46-4.67-11.4-12.25-3.06-7.87-5-18.87-5-31.06,0-14.39,2.65-27.14,6.73-35,2.7-5.21,6-8.29,9.63-8.29,7.53,0,13.86,13.44,15.77,31.73A112.91,112.91,0,0,1,380,379.3Z" style="fill:#ccc;stroke:#263238;stroke-linecap:round;stroke-linejoin:round"></path><path d="M379.37,367.73,368,380.11l-.39,41.18a7.22,7.22,0,0,1-4,1.32c-4.43,0-8.46-4.67-11.4-12.25l11.4-31.06-9.63-35c2.7-5.21,6-8.29,9.63-8.29C371.13,336,377.46,349.44,379.37,367.73Z" style="fill:#fff;stroke:#263238;stroke-linecap:round;stroke-linejoin:round"></path><path d="M428,213s-31.49,38-54.19,50c-4.61,2.44-11.52,5.52-19.65,8.88h0c-31.91,13.19-82.79,30.76-88.7,31.87-7.41,1.38-88.92,2.31-98.65,0S183,276,183,276s.36-.41,1-1.12c1.3-1.43,3.73-4.1,6.73-7.31,26-16.7,56.62-32.68,87.26-42.55a301,301,0,0,1,41.26-9.95c7.61-1.06,14.93-1.79,21.67-2.06C386.73,211.14,428,213,428,213Z" style="fill:#FFC100"></path><path d="M354.09,271.9c-31.91,13.19-82.79,30.76-88.7,31.87-7.41,1.38-88.92,2.31-98.65,0S183,276,183,276s.36-.41,1-1.12c10.62,3.15,30.1,7,60.94,6.37C283.87,280.46,333,274.62,354.09,271.9Z" style="fill:#8f8f8f;stroke:#263238;stroke-linecap:round;stroke-linejoin:round"></path><path d="M305.38,290.44H170.09c-4.69,6.19-7.86,12.25-3.35,13.32,9.73,2.32,91.24,1.39,98.65,0C268.64,303.15,285.53,297.55,305.38,290.44Z" style="fill:#263238;stroke:#263238;stroke-linecap:round;stroke-linejoin:round"></path><path d="M272.7,226.75a328.19,328.19,0,0,0-31.41,12.78l86.1,42.84c9.42-3.55,18.66-7.15,26.7-10.47h0c5-2.06,9.5-4,13.31-5.78Z" style="fill:#fff"></path><path d="M313,216.18c-6.22,1.18-12.48,2.55-18.73,4.14l82.43,41a122.32,122.32,0,0,0,16-12Z" style="fill:#fff"></path><path d="M428,213s-31.49,38-54.19,50c-4.61,2.44-11.52,5.52-19.65,8.88h0c-31.91,13.19-82.79,30.76-88.7,31.87-7.41,1.38-88.92,2.31-98.65,0S183,276,183,276s.36-.41,1-1.12c1.3-1.43,3.73-4.1,6.73-7.31,26-16.7,56.62-32.68,87.26-42.55a301,301,0,0,1,41.26-9.95c7.61-1.06,14.93-1.79,21.67-2.06C386.73,211.14,428,213,428,213Z" style="fill:none;stroke:#263238;stroke-linecap:round;stroke-linejoin:round"></path><path d="M239.32,358.25h-90.2a3,3,0,0,1-3-3h0a3,3,0,0,1,3-3h90.2a3,3,0,0,1,3,3h0A3,3,0,0,1,239.32,358.25Z" style="fill:#263238;stroke:#263238;stroke-linecap:round;stroke-linejoin:round"></path><path d="M239.32,371h-90.2a3,3,0,0,1-3-3h0a3,3,0,0,1,3-3h90.2a3,3,0,0,1,3,3h0A3,3,0,0,1,239.32,371Z" style="fill:#263238;stroke:#263238;stroke-linecap:round;stroke-linejoin:round"></path><path d="M239.32,383.8h-90.2a3,3,0,0,1-3-3h0a3,3,0,0,1,3-3h90.2a3,3,0,0,1,3,3h0A3,3,0,0,1,239.32,383.8Z" style="fill:#263238;stroke:#263238;stroke-linecap:round;stroke-linejoin:round"></path></g><g id="freepik--Character--inject-113"><path d="M499.47,274.33l-5.11-5.51-4.69-13.67L507,260.87l1.84-6.53s-16.32-9.19-20.4-11.23-9.39-3.46-9.59-.61,3.47,42.24,3.47,42.24-12.45,36.52-12.45,37.34.61,1.22,1.43,1.43,9.18-.62,19.38,1.22,13.88,2.86,13.88,2.86a3.31,3.31,0,0,0,3.26-2.86c.41-2.86,13.06-31.22,13.06-31.22s31-25.09,32.85-27.34,5.71-8.57,5.51-10.41-37.14-.4-37.14-.4l-.61,6.32,14.9,3.06-17.35,11-5.3.41Z" style="fill:#FFC100;stroke:#263238;stroke-linecap:round;stroke-linejoin:round"></path><line x1="482.33" y1="284.74" x2="489.06" y2="269.23" style="fill:none;stroke:#263238;stroke-linecap:round;stroke-linejoin:round"></line><line x1="520.89" y1="293.51" x2="526.6" y2="282.9" style="fill:#fff;stroke:#263238;stroke-linecap:round;stroke-linejoin:round"></line><polyline points="547.41 257.81 536.4 264.74 543.33 258.01" style="fill:none;stroke:#263238;stroke-linecap:round;stroke-linejoin:round"></polyline><polyline points="487.22 245.36 489.67 255.15 490.69 248.01" style="fill:none;stroke:#263238;stroke-linecap:round;stroke-linejoin:round"></polyline><polygon points="496.4 281.68 496.61 289.63 483.14 317.59 484.37 322.89 492.32 317.38 499.26 290.25 506.61 284.33 502.53 279.23 496.4 281.68" style="fill:#263238;stroke:#263238;stroke-linecap:round;stroke-linejoin:round"></polygon><path d="M499.47,274.33s-9.19,9.39-8.17,9.39,8.17-1.43,8.17-1.43l11.63,5.51s4.48-8,4.69-12-1.43-2.65-2.86-2.86S503.34,270.66,499.47,274.33Z" style="fill:#FFC100;stroke:#263238;stroke-linecap:round;stroke-linejoin:round"></path><path d="M505.59,249.24a4.2,4.2,0,0,1,.81-5.92c3.27-2.86,7.14-.61,8.57.81s2.45-1.22,6.33.21,4.89,4.08,4.69,6.32,1.43,4.9,1.63,8.37-3.87,9.39-5.91,10.2-.62,1.43-3.47,1.43-.62-5.71-.62-8.16,2.25-5.72,0-7.76-7.95-1.22-10.2-2S505.59,249.24,505.59,249.24Z" style="fill:#263238;stroke:#263238;stroke-linecap:round;stroke-linejoin:round"></path><path d="M505.59,249.24S498,262.29,498.44,266s0,6.32,1,8.36l1,2s-2.86,9.8-.82,9.59,11.63-7.75,12.24-8.16,5.92-4.28,5.92-4.28,4.9-.41,5.3-2.45a5.76,5.76,0,0,0-.81-3.88l-3.68-.2s2.05-2.45,1.64-3.88-1.23-1.43,0-3.06,2.45-2.45,1.83-4.69-1.83-4.49-6.73-4.7S508.65,252.91,505.59,249.24Z" style="fill:#fff;stroke:#263238;stroke-linecap:round;stroke-linejoin:round"></path><path d="M507.22,258.42s-4.29,5.71-3.88,6.32a2.85,2.85,0,0,0,4.08-.2" style="fill:none;stroke:#263238;stroke-linecap:round;stroke-linejoin:round"></path><path d="M502.12,267.6a15.32,15.32,0,0,0,4.89.82c1.84-.21,3.88-2.66,3.88-2.66" style="fill:none;stroke:#263238;stroke-linecap:round;stroke-linejoin:round"></path><path d="M503.14,256.38s1.63-2,4.28-.21" style="fill:none;stroke:#263238;stroke-linecap:round;stroke-linejoin:round"></path><path d="M511.71,256.58s3.06-.41,3.87,1.63" style="fill:none;stroke:#263238;stroke-linecap:round;stroke-linejoin:round"></path><path d="M501.91,258.83a5,5,0,0,0,3.47.2" style="fill:none;stroke:#263238;stroke-linecap:round;stroke-linejoin:round"></path><path d="M510.48,260.25a5,5,0,0,0,3.47.21" style="fill:none;stroke:#263238;stroke-linecap:round;stroke-linejoin:round"></path><path d="M500.49,276.37a18.58,18.58,0,0,0,3.46.41,36.51,36.51,0,0,0,4.29-.41l-8.77,5.92Z" style="fill:#263238;stroke:#263238;stroke-linecap:round;stroke-linejoin:round"></path><path d="M471.31,323.51l-4.35.06s-17.57-8.4-23.93-11.71-12.22,3.31-13,8.14,2.8,12.22,2.8,12.22L414,383.38l13.24,4.33L446.59,347h46.84s5.34-.76,8.4-3.81,4.83-15.79,4.83-15.79S483.3,321.92,471.31,323.51Z" style="fill:#263238;stroke:#263238;stroke-linecap:round;stroke-linejoin:round"></path><path d="M495.46,330.69s-9.16-3.05-16.29-2.29-32.83,2-32.83,2" style="fill:none;stroke:#fff;stroke-linecap:round;stroke-linejoin:round"></path><path d="M447.61,314.15s-4.33-4.84-7.38-5.35-12,.77-12.73,6.11,5.09,21.64,5.09,21.64l6.11,25.2,15.53-6.62-10.44-38.69" style="fill:#263238;stroke:#263238;stroke-linecap:round;stroke-linejoin:round"></path><line x1="451.65" y1="343.15" x2="446.19" y2="320.67" style="fill:none;stroke:#fff;stroke-linecap:round;stroke-linejoin:round"></line><path d="M444.56,356.91s2,10.95,1.78,12.22a34,34,0,0,1-4.58,9.16c-2,2.55-4.84,3.57-3.06,4.58s7.64,0,9.67-1,7.89-8.66,9.68-10.19,2.29-1,3.31-2.8-1.53-5.34-3.06-6.11S455,361,455,361l-2.54-6.87Z" style="fill:#fff;stroke:#263238;stroke-linecap:round;stroke-linejoin:round"></path><path d="M447.61,365.31c-1,.28-1.27,1.42-1.33,2.38a6.51,6.51,0,0,1,.06,1.44,34,34,0,0,1-4.58,9.16c-2,2.55-4.84,3.57-3.06,4.58s7.64,0,9.67-1,7.89-8.66,9.68-10.19,2.29-1,3.31-2.8-1.53-5.34-3.06-6.11S455,361,455,361l-3.56,4.84A6.12,6.12,0,0,0,447.61,365.31Z" style="fill:#263238;stroke:#263238;stroke-linecap:round;stroke-linejoin:round"></path><path d="M417.07,382.11l-4.84,4.58s-8.66,2-13.24,2-6.36-.26-6.61,1,5.09,5.34,11.7,7.12,9.93,1.28,11.46,1.78,3.31,1.79,4.83.26,4.08-14.51,4.08-14.51Z" style="fill:#fff;stroke:#263238;stroke-linecap:round;stroke-linejoin:round"></path><path d="M392.38,389.75c-.26,1.27,5.09,5.34,11.7,7.12s9.93,1.28,11.46,1.78,3.31,1.79,4.83.26c.76-.76,1.78-4.35,2.6-7.77l-7.69-1.65a5.11,5.11,0,0,0,.26-2.8c-.26-1.78-3.31,0-3.31,0s-8.66,2-13.24,2S392.63,388.47,392.38,389.75Z" style="fill:#263238;stroke:#263238;stroke-linecap:round;stroke-linejoin:round"></path></g><g id="freepik--Lines--inject-113"><line x1="473.2" y1="215.5" x2="576.45" y2="215.5" style="fill:none;stroke:#263238;stroke-linecap:round;stroke-linejoin:round"></line><line x1="546.05" y1="231.98" x2="627.22" y2="231.98" style="fill:none;stroke:#263238;stroke-linecap:round;stroke-linejoin:round"></line><line x1="616.7" y1="338.71" x2="661.8" y2="338.71" style="fill:none;stroke:#263238;stroke-linecap:round;stroke-linejoin:round"></line><line x1="615.61" y1="392.45" x2="720.91" y2="392.45" style="fill:none;stroke:#263238;stroke-linecap:round;stroke-linejoin:round"></line><line x1="381.45" y1="422.89" x2="395.73" y2="422.89" style="fill:none;stroke:#263238;stroke-linecap:round;stroke-linejoin:round"></line><line x1="198.81" y1="422.14" x2="250.67" y2="422.14" style="fill:none;stroke:#263238;stroke-linecap:round;stroke-linejoin:round"></line><line x1="240.9" y1="416.12" x2="286" y2="416.12" style="fill:none;stroke:#263238;stroke-linecap:round;stroke-linejoin:round"></line><line x1="453.6" y1="421.38" x2="489.68" y2="421.38" style="fill:none;stroke:#263238;stroke-linecap:round;stroke-linejoin:round"></line><line x1="485.17" y1="413.87" x2="509.97" y2="413.87" style="fill:none;stroke:#263238;stroke-linecap:round;stroke-linejoin:round"></line><line x1="603.92" y1="424.39" x2="680.54" y2="424.39" style="fill:none;stroke:#263238;stroke-linecap:round;stroke-linejoin:round"></line><line x1="591.15" y1="285.34" x2="685.85" y2="285.34" style="fill:none;stroke:#263238;stroke-linecap:round;stroke-linejoin:round"></line></g></svg>
