<svg xmlns="http://www.w3.org/2000/svg" viewBox="0 0 500 500"><g id="freepik--background-complete--inject-98"><rect x="416.78" y="398.49" width="33.12" height="0.25" style="fill:#ebebeb"></rect><rect x="322.53" y="401.21" width="8.69" height="0.25" style="fill:#ebebeb"></rect><rect x="396.59" y="389.21" width="19.19" height="0.25" style="fill:#ebebeb"></rect><rect x="52.46" y="390.89" width="43.19" height="0.25" style="fill:#ebebeb"></rect><rect x="104.56" y="390.89" width="6.33" height="0.25" style="fill:#ebebeb"></rect><rect x="131.47" y="395.11" width="93.68" height="0.25" style="fill:#ebebeb"></rect><path d="M238.4,337.8H45.3a5.71,5.71,0,0,1-5.71-5.71V60.66A5.71,5.71,0,0,1,45.3,55H238.4a5.71,5.71,0,0,1,5.71,5.71V332.09A5.71,5.71,0,0,1,238.4,337.8ZM45.3,55.2a5.47,5.47,0,0,0-5.46,5.46V332.09a5.47,5.47,0,0,0,5.46,5.46H238.4a5.47,5.47,0,0,0,5.46-5.46V60.66a5.47,5.47,0,0,0-5.46-5.46Z" style="fill:#ebebeb"></path><path d="M454.7,337.8H261.6a5.71,5.71,0,0,1-5.71-5.71V60.66A5.71,5.71,0,0,1,261.6,55H454.7a5.71,5.71,0,0,1,5.71,5.71V332.09A5.71,5.71,0,0,1,454.7,337.8ZM261.6,55.2a5.47,5.47,0,0,0-5.46,5.46V332.09a5.47,5.47,0,0,0,5.46,5.46H454.7a5.47,5.47,0,0,0,5.46-5.46V60.66a5.47,5.47,0,0,0-5.46-5.46Z" style="fill:#ebebeb"></path><rect y="382.4" width="500" height="0.25" style="fill:#ebebeb"></rect><rect x="155.12" y="173.46" width="55.61" height="209.31" style="fill:#f5f5f5"></rect><rect x="109.05" y="157.37" width="50.08" height="225.4" style="fill:#f0f0f0"></rect><rect x="67.77" y="266.36" width="50.08" height="116.41" style="fill:#f5f5f5"></rect><rect x="202.35" y="237.21" width="55.61" height="145.57" style="fill:#f0f0f0"></rect><rect x="117.85" y="179.5" width="5.12" height="5.17" style="fill:#fff"></rect><rect x="145.2" y="179.5" width="5.12" height="5.17" style="fill:#fff"></rect><rect x="117.85" y="196.25" width="5.12" height="5.17" style="fill:#fff"></rect><rect x="131.53" y="196.25" width="5.12" height="5.17" style="fill:#fff"></rect><rect x="145.2" y="212.99" width="5.12" height="5.17" style="fill:#fff"></rect><rect x="117.85" y="229.74" width="5.12" height="5.17" style="fill:#fff"></rect><rect x="131.53" y="229.74" width="5.12" height="5.17" style="fill:#fff"></rect><rect x="131.53" y="246.48" width="5.12" height="5.17" style="fill:#fff"></rect><rect x="145.2" y="246.48" width="5.12" height="5.17" style="fill:#fff"></rect><rect x="131.53" y="263.23" width="5.12" height="5.17" style="fill:#fff"></rect><rect x="145.2" y="263.23" width="5.12" height="5.17" style="fill:#fff"></rect><rect x="145.2" y="279.97" width="5.12" height="5.17" style="fill:#fff"></rect><rect x="131.53" y="296.72" width="5.12" height="5.17" style="fill:#fff"></rect><rect x="241.27" y="246.48" width="5.12" height="5.17" transform="translate(487.67 498.13) rotate(180)" style="fill:#fff"></rect><rect x="213.92" y="246.48" width="5.12" height="5.17" transform="translate(432.96 498.13) rotate(180)" style="fill:#fff"></rect><rect x="241.27" y="263.23" width="5.12" height="5.17" transform="translate(487.67 531.62) rotate(180)" style="fill:#fff"></rect><rect x="227.6" y="263.23" width="5.12" height="5.17" transform="translate(460.32 531.62) rotate(180)" style="fill:#fff"></rect><rect x="213.92" y="279.97" width="5.12" height="5.17" transform="translate(432.96 565.11) rotate(180)" style="fill:#fff"></rect><rect x="241.27" y="296.72" width="5.12" height="5.17" transform="translate(487.67 598.6) rotate(180)" style="fill:#fff"></rect><rect x="227.6" y="296.72" width="5.12" height="5.17" transform="translate(460.32 598.6) rotate(180)" style="fill:#fff"></rect><rect x="227.6" y="313.46" width="5.12" height="5.17" transform="translate(460.32 632.09) rotate(180)" style="fill:#fff"></rect><rect x="213.92" y="313.46" width="5.12" height="5.17" transform="translate(432.96 632.09) rotate(180)" style="fill:#fff"></rect><rect x="227.6" y="330.21" width="5.12" height="5.17" transform="translate(460.32 665.58) rotate(180)" style="fill:#fff"></rect><rect x="213.92" y="330.21" width="5.12" height="5.17" transform="translate(432.96 665.58) rotate(180)" style="fill:#fff"></rect><rect x="213.92" y="346.95" width="5.12" height="5.17" transform="translate(432.96 699.07) rotate(180)" style="fill:#fff"></rect><rect x="227.6" y="363.7" width="5.12" height="5.17" transform="translate(460.32 732.56) rotate(180)" style="fill:#fff"></rect><rect x="330.38" y="179.44" width="42.83" height="203.34" transform="translate(703.58 562.21) rotate(180)" style="fill:#f5f5f5"></rect><rect x="370.11" y="163.81" width="38.57" height="218.96" transform="translate(778.8 546.58) rotate(180)" style="fill:#f0f0f0"></rect><rect x="401.9" y="269.68" width="38.57" height="113.09" transform="translate(842.38 652.46) rotate(180)" style="fill:#f5f5f5"></rect><rect x="294" y="241.36" width="42.83" height="141.41" transform="translate(630.82 624.14) rotate(180)" style="fill:#f0f0f0"></rect><rect x="397.96" y="185.31" width="3.95" height="5.02" transform="translate(799.86 375.64) rotate(180)" style="fill:#fff"></rect><rect x="376.89" y="185.31" width="3.95" height="5.02" transform="translate(757.73 375.64) rotate(180)" style="fill:#fff"></rect><rect x="397.96" y="201.57" width="3.95" height="5.02" transform="translate(799.86 408.17) rotate(180)" style="fill:#fff"></rect><rect x="387.42" y="201.57" width="3.95" height="5.02" transform="translate(778.8 408.17) rotate(180)" style="fill:#fff"></rect><rect x="376.89" y="217.84" width="3.95" height="5.02" transform="translate(757.73 440.7) rotate(180)" style="fill:#fff"></rect><rect x="397.96" y="234.11" width="3.95" height="5.02" transform="translate(799.86 473.24) rotate(180)" style="fill:#fff"></rect><rect x="387.42" y="234.11" width="3.95" height="5.02" transform="translate(778.8 473.24) rotate(180)" style="fill:#fff"></rect><rect x="387.42" y="250.38" width="3.95" height="5.02" transform="translate(778.8 505.77) rotate(180)" style="fill:#fff"></rect><rect x="376.89" y="250.38" width="3.95" height="5.02" transform="translate(757.73 505.77) rotate(180)" style="fill:#fff"></rect><rect x="387.42" y="266.64" width="3.95" height="5.02" transform="translate(778.8 538.3) rotate(180)" style="fill:#fff"></rect><rect x="376.89" y="266.64" width="3.95" height="5.02" transform="translate(757.73 538.3) rotate(180)" style="fill:#fff"></rect><rect x="376.89" y="282.91" width="3.95" height="5.02" transform="translate(757.73 570.84) rotate(180)" style="fill:#fff"></rect><rect x="387.42" y="299.18" width="3.95" height="5.02" transform="translate(778.8 603.37) rotate(180)" style="fill:#fff"></rect><rect x="302.91" y="250.38" width="3.95" height="5.02" style="fill:#fff"></rect><rect x="323.97" y="250.38" width="3.95" height="5.02" style="fill:#fff"></rect><rect x="302.91" y="266.64" width="3.95" height="5.02" style="fill:#fff"></rect><rect x="313.44" y="266.64" width="3.95" height="5.02" style="fill:#fff"></rect><rect x="323.97" y="282.91" width="3.95" height="5.02" style="fill:#fff"></rect><rect x="302.91" y="299.18" width="3.95" height="5.02" style="fill:#fff"></rect><rect x="313.44" y="299.18" width="3.95" height="5.02" style="fill:#fff"></rect><rect x="313.44" y="315.44" width="3.95" height="5.02" style="fill:#fff"></rect><rect x="323.97" y="315.44" width="3.95" height="5.02" style="fill:#fff"></rect><rect x="313.44" y="331.71" width="3.95" height="5.02" style="fill:#fff"></rect><rect x="323.97" y="331.71" width="3.95" height="5.02" style="fill:#fff"></rect><rect x="323.97" y="347.98" width="3.95" height="5.02" style="fill:#fff"></rect><rect x="313.44" y="364.24" width="3.95" height="5.02" style="fill:#fff"></rect><path d="M169,118.13S75.51,131.41,85.19,103s29.41,0,29.41,0,10.15-17.84,21.21-12.62S148,107.25,148,107.25s3.28-9.54,12.15.67S168.17,105.67,169,118.13Z" style="fill:#f5f5f5"></path><path d="M354.79,114.67s-61.57,8.74-55.19-10,19.36,0,19.36,0,6.68-11.75,14-8.31a14.67,14.67,0,0,1,8,11.1s2.16-6.27,8,.45S354.23,106.46,354.79,114.67Z" style="fill:#f5f5f5"></path><path d="M418.37,105.37S348.26,115.32,355.53,94s22,0,22,0,7.61-13.38,15.9-9.47,9.15,12.65,9.15,12.65,2.46-7.15,9.1.5S417.73,96,418.37,105.37Z" style="fill:#f5f5f5"></path></g><g id="freepik--Shadow--inject-98"><ellipse id="freepik--path--inject-98" cx="250" cy="415.69" rx="193.89" ry="11.32" style="fill:#f5f5f5"></ellipse></g><g id="freepik--Circle--inject-98"><path d="M250.13,252.17a75.54,75.54,0,1,1,2.55,0C251.83,252.15,251,252.17,250.13,252.17ZM250.19,111c-.74,0-1.48,0-2.22,0a65.6,65.6,0,0,0,2.16,131.17c.74,0,1.47,0,2.22,0A65.6,65.6,0,0,0,250.19,111Z" style="fill:#FFC100"></path><path d="M250.13,252.17a75.54,75.54,0,1,1,2.55,0C251.83,252.15,251,252.17,250.13,252.17ZM250.19,111c-.74,0-1.48,0-2.22,0a65.6,65.6,0,0,0,2.16,131.17c.74,0,1.47,0,2.22,0A65.6,65.6,0,0,0,250.19,111Z" style="fill:#fff;opacity:0.5"></path></g><g id="freepik--Electricity--inject-98"><circle cx="193.78" cy="220.73" r="18.16" transform="translate(-78.75 330.28) rotate(-70.62)" style="fill:#263238"></circle><circle cx="193.78" cy="220.73" r="18.16" transform="translate(-78.75 330.28) rotate(-70.62)" style="fill:#fff;opacity:0.7000000000000001"></circle><polygon points="202.19 218.04 194.35 218.05 196.29 208.89 185.36 223.42 193.21 223.41 191.26 232.57 202.19 218.04" style="fill:#FFC100"></polygon></g><g id="freepik--power-plug--inject-98"><path d="M281.68,227.07l-16.27,16.26,5.31,5.3L287,232.37ZM274,242.68c-1,1-2.47,1.31-3.18.59s-.46-2.14.59-3.18,2.46-1.3,3.18-.59S275,241.64,274,242.68Z" style="fill:#263238"></path><path d="M293.25,238.64,277,254.9l5.3,5.31,16.26-16.27Zm-7.72,15.61c-1,1.05-2.47,1.31-3.18.59s-.45-2.14.59-3.18,2.46-1.3,3.18-.59S286.57,253.21,285.53,254.25Z" style="fill:#263238"></path><g style="opacity:0.7000000000000001"><path d="M281.68,227.07l-16.27,16.26,5.31,5.3L287,232.37ZM274,242.68c-1,1-2.47,1.31-3.18.59s-.46-2.14.59-3.18,2.46-1.3,3.18-.59S275,241.64,274,242.68Z" style="fill:#fff"></path><path d="M293.25,238.64,277,254.9l5.3,5.31,16.26-16.27Zm-7.72,15.61c-1,1.05-2.47,1.31-3.18.59s-.45-2.14.59-3.18,2.46-1.3,3.18-.59S286.57,253.21,285.53,254.25Z" style="fill:#fff"></path></g><path d="M308.15,239.45c6.07-6.06,3.24-13.08-2.83-19.15s-13.08-8.9-19.15-2.83l-9.24,9.24,22,22Z" style="fill:#263238"></path><path d="M304,212.68h2.83a3.75,3.75,0,0,1,3.75,3.75v11.25a0,0,0,0,1,0,0H300.27a0,0,0,0,1,0,0V216.44a3.75,3.75,0,0,1,3.75-3.75Z" transform="translate(245.15 -151.48) rotate(45)" style="fill:#263238"></path><path d="M297.07,237.51l-9-9a1.18,1.18,0,0,1,0-1.65h0a1.18,1.18,0,0,1,1.65,0l9,9a1.18,1.18,0,0,1,0,1.65h0A1.18,1.18,0,0,1,297.07,237.51Z" style="fill:#fff;opacity:0.30000000000000004"></path><path d="M299.42,231.62,294,226.2a1.18,1.18,0,0,1,0-1.65h0a1.16,1.16,0,0,1,1.65,0l5.42,5.42a1.16,1.16,0,0,1,0,1.65h0A1.18,1.18,0,0,1,299.42,231.62Z" style="fill:#fff;opacity:0.30000000000000004"></path><path d="M296.53,250.64,275,229.09a3.05,3.05,0,0,1,0-4.33h0a3.05,3.05,0,0,1,4.33,0l21.55,21.55a3.05,3.05,0,0,1,0,4.33h0A3.05,3.05,0,0,1,296.53,250.64Z" style="fill:#263238"></path></g><g id="freepik--Oil--inject-98"><path d="M327.19,153.86a14,14,0,1,1-28.05,0c0-7.75,14-34.69,14-34.69S327.19,146.11,327.19,153.86Z" style="fill:#263238"></path><path d="M323,153.35c1.11,1.11,0,4-2.47,6.48s-5.38,3.58-6.49,2.48,1.42-2.6,3.89-5.07S321.89,152.24,323,153.35Z" style="fill:#fff;opacity:0.8"></path><circle cx="322.33" cy="149" r="1.5" style="fill:#fff;opacity:0.8"></circle></g><g id="freepik--gasoline-hose--inject-98"><path d="M227.66,111.05l-.57-6,20.93-2a55.37,55.37,0,0,1,18.32,1.3L282,108.15,280.59,114l-15.66-3.77a49.61,49.61,0,0,0-16.34-1.16Z" style="fill:#263238"></path><path d="M227.66,111.05l-.57-6,20.93-2a55.37,55.37,0,0,1,18.32,1.3L282,108.15,280.59,114l-15.66-3.77a49.61,49.61,0,0,0-16.34-1.16Z" style="fill:#263238"></path><g style="opacity:0.4"><path d="M227.66,111.05l-.57-6,20.93-2a55.37,55.37,0,0,1,18.32,1.3L282,108.15,280.59,114l-15.66-3.77a49.61,49.61,0,0,0-16.34-1.16Z" style="fill:#fff"></path></g><rect x="227.35" y="102.59" width="9.8" height="10" transform="translate(-9.15 22.5) rotate(-5.44)" style="fill:#263238"></rect><g style="opacity:0.6000000000000001"><rect x="227.35" y="102.59" width="9.8" height="10" transform="translate(-9.15 22.5) rotate(-5.44)" style="fill:#fff"></rect></g><path d="M195.35,150.44l7.71-18.78a4,4,0,0,1,5.16-2.15l9.06,3.72,2.69-2.68-10.42-4.28a7.46,7.46,0,0,0-9.73,4.06l-7.37,18Z" style="fill:#263238"></path><path d="M232,111.93l-1.84-6.69a10,10,0,0,0-2.57-4.41h0a10,10,0,0,0-11.71-1.77L200.93,107a2.77,2.77,0,0,0-.66,4.41h0L178,133.61a3.52,3.52,0,0,0,0,5l15.51,15.51a3.52,3.52,0,0,0,5,0L228.59,124a9.89,9.89,0,0,0,2.39-3.83l.82-2.41A10,10,0,0,0,232,111.93Zm-37.36,35.85-8-8a3.23,3.23,0,0,1,0-4.58l15.89-15.89a4,4,0,0,1,5.71,0l6.84,6.84a4,4,0,0,1,0,5.71L199.2,147.78A3.23,3.23,0,0,1,194.62,147.78Z" style="fill:#FFC100"></path></g><g id="freepik--Text--inject-98"><path d="M224.54,172.39l-2.82,14.09h-3.26l1.15-5.74h-6.38l-1.15,5.74H208.8l2.82-14.09h3.28l-1.11,5.54h6.38l1.11-5.54Z" style="fill:#FFC100"></path><path d="M232.79,181.59l-1,4.89h-3.26l1-5-3.62-9.06h3.26l2.52,6.28,5-6.28h3.36Z" style="fill:#FFC100"></path><path d="M251.76,180.29a3,3,0,0,1,.5,1.74,3.72,3.72,0,0,1-1.73,3.32,8.37,8.37,0,0,1-4.61,1.13h-7.39l2.82-14.09h6.8a6.24,6.24,0,0,1,3.5.83,2.73,2.73,0,0,1,1.23,2.39,3.59,3.59,0,0,1-.67,2.2,4.17,4.17,0,0,1-1.85,1.4A3,3,0,0,1,251.76,180.29Zm-3.51,3.21A1.72,1.72,0,0,0,249,182c0-1-.71-1.45-2.12-1.45H243l-.69,3.48h3.85A3.73,3.73,0,0,0,248.25,183.5Zm-4.17-8.65-.66,3.32h3.32a3.31,3.31,0,0,0,2-.52,1.7,1.7,0,0,0,.72-1.48q0-1.32-2.07-1.32Z" style="fill:#FFC100"></path><path d="M266.93,180.14a5.69,5.69,0,0,1-3,2l2.46,4.35H263l-2.22-3.94H258l-.78,3.94h-3.28l2.82-14.09h5.73a6.38,6.38,0,0,1,4.07,1.15,3.86,3.86,0,0,1,1.45,3.22A5.46,5.46,0,0,1,266.93,180.14Zm-3.13-.95a2.6,2.6,0,0,0,.9-2.13,1.74,1.74,0,0,0-.69-1.51,3.19,3.19,0,0,0-1.95-.5h-2.58l-1,4.89h2.78A3.83,3.83,0,0,0,263.8,179.19Z" style="fill:#FFC100"></path><path d="M271.54,172.39h3.28L272,186.48h-3.28Z" style="fill:#FFC100"></path><path d="M278.14,172.39H284a9,9,0,0,1,3.72.71,5.41,5.41,0,0,1,2.39,2.05,5.69,5.69,0,0,1,.84,3.12,8.26,8.26,0,0,1-1.11,4.31,7.41,7.41,0,0,1-3.09,2.88,9.87,9.87,0,0,1-4.58,1h-6.88Zm4.17,11.41a5.72,5.72,0,0,0,2.87-.69A4.68,4.68,0,0,0,287,181.2a5.81,5.81,0,0,0,.64-2.75,3.15,3.15,0,0,0-1-2.49,4.46,4.46,0,0,0-3-.89h-2.8l-1.75,8.73Z" style="fill:#FFC100"></path><path d="M291.82,191.8H196.26l4.81-24.74H305.52l-3.08,15.87A11.32,11.32,0,0,1,291.82,191.8Zm-93.52-1.67h93.52a9.58,9.58,0,0,0,9-7.52l2.7-13.87h-101Z" style="fill:#FFC100"></path><g style="opacity:0.5"><path d="M224.54,172.39l-2.82,14.09h-3.26l1.15-5.74h-6.38l-1.15,5.74H208.8l2.82-14.09h3.28l-1.11,5.54h6.38l1.11-5.54Z" style="fill:#fff"></path><path d="M232.79,181.59l-1,4.89h-3.26l1-5-3.62-9.06h3.26l2.52,6.28,5-6.28h3.36Z" style="fill:#fff"></path><path d="M251.76,180.29a3,3,0,0,1,.5,1.74,3.72,3.72,0,0,1-1.73,3.32,8.37,8.37,0,0,1-4.61,1.13h-7.39l2.82-14.09h6.8a6.24,6.24,0,0,1,3.5.83,2.73,2.73,0,0,1,1.23,2.39,3.59,3.59,0,0,1-.67,2.2,4.17,4.17,0,0,1-1.85,1.4A3,3,0,0,1,251.76,180.29Zm-3.51,3.21A1.72,1.72,0,0,0,249,182c0-1-.71-1.45-2.12-1.45H243l-.69,3.48h3.85A3.73,3.73,0,0,0,248.25,183.5Zm-4.17-8.65-.66,3.32h3.32a3.31,3.31,0,0,0,2-.52,1.7,1.7,0,0,0,.72-1.48q0-1.32-2.07-1.32Z" style="fill:#fff"></path><path d="M266.93,180.14a5.69,5.69,0,0,1-3,2l2.46,4.35H263l-2.22-3.94H258l-.78,3.94h-3.28l2.82-14.09h5.73a6.38,6.38,0,0,1,4.07,1.15,3.86,3.86,0,0,1,1.45,3.22A5.46,5.46,0,0,1,266.93,180.14Zm-3.13-.95a2.6,2.6,0,0,0,.9-2.13,1.74,1.74,0,0,0-.69-1.51,3.19,3.19,0,0,0-1.95-.5h-2.58l-1,4.89h2.78A3.83,3.83,0,0,0,263.8,179.19Z" style="fill:#fff"></path><path d="M271.54,172.39h3.28L272,186.48h-3.28Z" style="fill:#fff"></path><path d="M278.14,172.39H284a9,9,0,0,1,3.72.71,5.41,5.41,0,0,1,2.39,2.05,5.69,5.69,0,0,1,.84,3.12,8.26,8.26,0,0,1-1.11,4.31,7.41,7.41,0,0,1-3.09,2.88,9.87,9.87,0,0,1-4.58,1h-6.88Zm4.17,11.41a5.72,5.72,0,0,0,2.87-.69A4.68,4.68,0,0,0,287,181.2a5.81,5.81,0,0,0,.64-2.75,3.15,3.15,0,0,0-1-2.49,4.46,4.46,0,0,0-3-.89h-2.8l-1.75,8.73Z" style="fill:#fff"></path><path d="M291.82,191.8H196.26l4.81-24.74H305.52l-3.08,15.87A11.32,11.32,0,0,1,291.82,191.8Zm-93.52-1.67h93.52a9.58,9.58,0,0,0,9-7.52l2.7-13.87h-101Z" style="fill:#fff"></path></g></g><g id="freepik--Car--inject-98"><path d="M410.91,367.33l-19-24.57L138,328.94l-41.3,13.82L80.08,380.15a14.4,14.4,0,0,0,6.69,6.2L92,388.68a16.13,16.13,0,0,0,6.34,1.45l307.54,7.31Z" style="fill:#263238"></path><path d="M410.91,367.33l-19-24.57L138,328.94l-41.3,13.82L80.08,380.15a14.4,14.4,0,0,0,6.69,6.2L92,388.68a16.13,16.13,0,0,0,6.34,1.45l307.54,7.31Z" style="fill:#fff;opacity:0.2"></path><path d="M424.62,350.18,420.17,337a16.24,16.24,0,0,0-8.89-9.69c-13-5.65-43.2-16.91-75.55-15.7,0,0-42.13-38.15-86.09-43.53-38.11-4.66-110.61,4.82-129.25,7.42a1.12,1.12,0,0,0-.22,2.17l4.8,1.72a2.07,2.07,0,0,1,.26,3.77L86,303.79a14.37,14.37,0,0,0-7.68,12.72v56.74a14.38,14.38,0,0,0,8.46,13.1L92,388.68c.2.1.41.18.61.26,0-.73-.06-1.46-.06-2.2a38,38,0,1,1,75.64,5.05l152.63,3.63a38,38,0,1,1,73.53,1.75l15,.35a13.47,13.47,0,0,0,4.32-.6l2.27-.69a13.6,13.6,0,0,0,9.59-13V355.37A16.32,16.32,0,0,0,424.62,350.18Z" style="fill:#FFC100"></path><path d="M320.77,395.42a39,39,0,0,1-.93-6.44L301.6,379.6a11.42,11.42,0,0,0-4.5-1.24l-96-6.3a11.57,11.57,0,0,0-5.1.83l-27.6,11.29c.05.85.08,1.7.08,2.56a38.25,38.25,0,0,1-.33,5.05Z" style="fill:#263238"></path><path d="M86.77,386.35,92,388.68c.2.1.41.18.61.26,0-.73-.06-1.46-.06-2.2a38.27,38.27,0,0,1,1.37-10.16L78.31,371.8v1.45A14.38,14.38,0,0,0,86.77,386.35Z" style="fill:#263238"></path><path d="M395.47,391.38a37.12,37.12,0,0,1-1.17,5.79l15,.35a13.47,13.47,0,0,0,4.32-.6l2.27-.69a13.54,13.54,0,0,0,5.21-3Z" style="fill:#263238"></path><path d="M130.49,345.17a41.62,41.62,0,0,0-41.58,41.57c0,.19,0,.38,0,.58l3,1.36c.2.1.41.18.61.26,0-.73-.06-1.46-.06-2.2a38,38,0,1,1,75.64,5.05l3.6.09a41.56,41.56,0,0,0-41.25-46.71Z" style="fill:#263238"></path><path d="M357.76,345.17a41.56,41.56,0,0,0-40.67,50.16l3.68.09a38,38,0,1,1,73.53,1.75l3.69.08a41.57,41.57,0,0,0-40.23-52.08Z" style="fill:#263238"></path><path d="M248.59,276.6c-22.44-2.75-58.11-.31-86.34,2.54a3.27,3.27,0,0,0-2.05,5.51l15.12,16a12.47,12.47,0,0,0,7.48,3.79L300.17,319a12.25,12.25,0,0,0,4.31-.22l15.94-3.66a2.37,2.37,0,0,0,.92-4.19C307.29,300.08,278,280.2,248.59,276.6Z" style="fill:#263238"></path><polygon points="403.07 384.75 401.95 384.75 410.19 355.45 414.18 355.45 403.07 384.75" style="opacity:0.30000000000000004"></polygon><path d="M425.47,383.24V355.37a16.32,16.32,0,0,0-.09-1.71l-9.71,34.51H417l2.41-6.34,5.75,4.18A14.14,14.14,0,0,0,425.47,383.24Z" style="opacity:0.30000000000000004"></path><g style="opacity:0.30000000000000004"><path d="M243.65,324.5l-14-.58a2.45,2.45,0,0,1-2.2-1.61h0a1.46,1.46,0,0,1,1.44-1.95l14,.59a2.43,2.43,0,0,1,2.19,1.61h0A1.45,1.45,0,0,1,243.65,324.5Z"></path></g><path d="M138.88,283.65l-12.74-3.19a2,2,0,0,1-.91,2.68L86,303.79c-.45.24-.88.5-1.3.78h8.08a8.4,8.4,0,0,0,2.17-.29L135.62,293a3.07,3.07,0,0,0,1.4-.85l3.32-3.61A3,3,0,0,0,138.88,283.65Z" style="fill:#263238"></path><path d="M360.32,323.2l5.52-1.9a5,5,0,0,1,2.83-.14l45.51,11,1,4a4.57,4.57,0,0,1-.47,3.43l-.15.26a4.93,4.93,0,0,1-4.93,2.42l-9-1.25a5.09,5.09,0,0,1-2.42-1l-10.4-7.9-27.44-6.87A1.09,1.09,0,0,1,360.32,323.2Z" style="fill:#fff;opacity:0.7000000000000001"></path><path d="M364.29,323a1,1,0,0,0,.08,1.87l24.37,6.09,9.23,7a4.7,4.7,0,0,0,2.15.89l8,1.1a4.38,4.38,0,0,0,4.38-2.14l.14-.24a4,4,0,0,0,.41-3l-.71-2.79-43.16-10.43Z" style="fill:#FFC100"></path><path d="M364.29,323a1,1,0,0,0,.08,1.87l24.37,6.09,9.23,7a4.7,4.7,0,0,0,2.15.89l8,1.1a4.38,4.38,0,0,0,4.38-2.14l.14-.24a4,4,0,0,0,.41-3l-.71-2.79-43.16-10.43Z" style="fill:#fff;opacity:0.30000000000000004"></path><path d="M412.31,331.71l-19.05-4.61,8.05,7.8a3.8,3.8,0,0,0,2,1.05l7.38,1.3a3.24,3.24,0,0,0,2.25-.43,4,4,0,0,0,.09-2.32Z" style="fill:#FFC100"></path><path d="M412.31,331.71l-19.05-4.61,8.05,7.8a3.8,3.8,0,0,0,2,1.05l7.38,1.3a3.24,3.24,0,0,0,2.25-.43,4,4,0,0,0,.09-2.32Z" style="fill:#fff;opacity:0.6000000000000001"></path><path d="M272.13,273.45l-3,1.54a.45.45,0,0,0,.08.82c24.13,7.78,46.49,24.47,59.35,35.35a5.36,5.36,0,0,0,4.93,1.06l2.21-.63S306.94,285.52,272.13,273.45Z" style="fill:#263238"></path><polygon points="156.99 326.28 204.18 362.53 302.33 375.8 332.09 335.03 203.82 326.28 156.99 326.28" style="fill:#fff;opacity:0.2"></polygon><circle cx="130.49" cy="386.74" r="31.66" transform="translate(-235.25 205.54) rotate(-45)" style="fill:#263238"></circle><g style="opacity:0.6000000000000001"><path d="M138.08,411.15h0a1.94,1.94,0,0,1,1.13-2.38,23.55,23.55,0,0,0,14.9-20.24,1.93,1.93,0,0,1,1.93-1.79h0a1.94,1.94,0,0,1,1.94,2.1,27.42,27.42,0,0,1-17.32,23.54A2,2,0,0,1,138.08,411.15Z"></path></g><g style="opacity:0.6000000000000001"><path d="M153.19,380a23.84,23.84,0,0,0-20.93-16.85,1.93,1.93,0,0,1-1.77-1.94h0a1.94,1.94,0,0,1,2.08-1.93,27.74,27.74,0,0,1,24.34,19.59,2,2,0,0,1-1.45,2.45h0A2,2,0,0,1,153.19,380Z"></path></g><g style="opacity:0.6000000000000001"><path d="M117.71,408.88a2,2,0,0,1-2.78.63,27.58,27.58,0,0,1,1.89-46.72,1.94,1.94,0,0,1,2.73.85h0a1.94,1.94,0,0,1-.79,2.51,23.7,23.7,0,0,0-1.63,40.16,1.93,1.93,0,0,1,.58,2.56Z"></path></g><g style="opacity:0.6000000000000001"><path d="M128.4,414.24a27.84,27.84,0,0,1-3.14-.42,1.94,1.94,0,0,1-1.5-2.42h0A1.93,1.93,0,0,1,126,410a22.76,22.76,0,0,0,2.72.36,2,2,0,0,1,1.79,1.94h0A2,2,0,0,1,128.4,414.24Z"></path></g><circle cx="130.49" cy="386.74" r="19.41" transform="translate(-235.25 205.54) rotate(-45)" style="fill:#fff;opacity:0.4"></circle><g style="opacity:0.30000000000000004"><rect x="128.93" y="369.28" width="3.11" height="13.05" rx="1.55" style="fill:#fff"></rect></g><rect x="129.55" y="371.89" width="1.86" height="7.83" rx="0.93" style="fill:#263238"></rect><g style="opacity:0.30000000000000004"><rect x="128.93" y="391.15" width="3.11" height="13.05" rx="1.55" style="fill:#fff"></rect></g><rect x="129.55" y="393.76" width="1.86" height="7.83" rx="0.93" style="fill:#263238"></rect><g style="opacity:0.30000000000000004"><path d="M124.54,385.1l-8.61-5a1.56,1.56,0,0,1-.57-2.12h0a1.56,1.56,0,0,1,2.13-.57l8.61,5a1.55,1.55,0,0,1,.57,2.12h0A1.55,1.55,0,0,1,124.54,385.1Z" style="fill:#fff"></path></g><path d="M123.13,383.57l-5.16-3a1,1,0,0,1-.35-1.28h0a1,1,0,0,1,1.28-.34l5.16,3a.93.93,0,0,1,.35,1.27h0A.94.94,0,0,1,123.13,383.57Z" style="fill:#263238"></path><g style="opacity:0.30000000000000004"><path d="M143.49,396l-8.62-5a1.56,1.56,0,0,1-.56-2.13h0a1.55,1.55,0,0,1,2.12-.56l8.61,5a1.55,1.55,0,0,1,.57,2.12h0A1.55,1.55,0,0,1,143.49,396Z" style="fill:#fff"></path></g><path d="M142.07,394.51l-5.16-3a.92.92,0,0,1-.34-1.27h0a.92.92,0,0,1,1.27-.34l5.17,3a.94.94,0,0,1,.34,1.28h0A1,1,0,0,1,142.07,394.51Z" style="fill:#263238"></path><g style="opacity:0.30000000000000004"><path d="M115.36,395.47h0a1.56,1.56,0,0,1,.57-2.12l8.61-5a1.56,1.56,0,0,1,2.13.56h0a1.56,1.56,0,0,1-.57,2.13l-8.61,5A1.56,1.56,0,0,1,115.36,395.47Z" style="fill:#fff"></path></g><path d="M117.62,394.17h0a1,1,0,0,1,.35-1.28l5.16-3a.93.93,0,0,1,1.28.34h0a.93.93,0,0,1-.35,1.27l-5.16,3A1,1,0,0,1,117.62,394.17Z" style="fill:#263238"></path><g style="opacity:0.30000000000000004"><path d="M134.31,384.53h0a1.55,1.55,0,0,1,.56-2.12l8.62-5a1.55,1.55,0,0,1,2.12.57h0a1.55,1.55,0,0,1-.57,2.12l-8.61,5A1.55,1.55,0,0,1,134.31,384.53Z" style="fill:#fff"></path></g><path d="M136.57,383.23h0a.92.92,0,0,1,.34-1.27l5.16-3a1,1,0,0,1,1.28.34h0a.94.94,0,0,1-.34,1.28l-5.17,3A.93.93,0,0,1,136.57,383.23Z" style="fill:#263238"></path><path d="M133.09,386.74a2.61,2.61,0,1,1-2.6-2.61A2.6,2.6,0,0,1,133.09,386.74Z" style="fill:#263238"></path><circle cx="357.76" cy="386.74" r="31.66" transform="translate(-168.68 366.25) rotate(-45)" style="fill:#263238"></circle><g style="opacity:0.6000000000000001"><path d="M365.36,411.15h0a1.94,1.94,0,0,1,1.13-2.38,23.55,23.55,0,0,0,14.9-20.24,1.93,1.93,0,0,1,1.93-1.79h0a2,2,0,0,1,1.94,2.1,27.43,27.43,0,0,1-17.32,23.54A2,2,0,0,1,365.36,411.15Z"></path></g><g style="opacity:0.6000000000000001"><path d="M380.47,380a23.85,23.85,0,0,0-20.93-16.85,1.94,1.94,0,0,1-1.78-1.94h0a1.94,1.94,0,0,1,2.09-1.93,27.74,27.74,0,0,1,24.34,19.59,2,2,0,0,1-1.45,2.45h0A1.94,1.94,0,0,1,380.47,380Z"></path></g><g style="opacity:0.6000000000000001"><path d="M345,408.88a2,2,0,0,1-2.78.63,27.58,27.58,0,0,1,1.89-46.72,1.93,1.93,0,0,1,2.72.85h0a1.93,1.93,0,0,1-.78,2.51,23.69,23.69,0,0,0-1.63,40.16,1.93,1.93,0,0,1,.58,2.56Z"></path></g><g style="opacity:0.6000000000000001"><path d="M355.68,414.24a27.54,27.54,0,0,1-3.14-.42,1.94,1.94,0,0,1-1.5-2.42h0a1.93,1.93,0,0,1,2.22-1.4,22.76,22.76,0,0,0,2.72.36,1.94,1.94,0,0,1,1.78,1.94h0A2,2,0,0,1,355.68,414.24Z"></path></g><circle cx="357.76" cy="386.74" r="19.41" transform="translate(-168.68 366.25) rotate(-45)" style="fill:#fff;opacity:0.4"></circle><g style="opacity:0.30000000000000004"><rect x="356.21" y="369.28" width="3.11" height="13.05" rx="1.55" style="fill:#fff"></rect></g><rect x="356.83" y="371.89" width="1.86" height="7.83" rx="0.93" style="fill:#263238"></rect><g style="opacity:0.30000000000000004"><rect x="356.21" y="391.15" width="3.11" height="13.05" rx="1.55" style="fill:#fff"></rect></g><rect x="356.83" y="393.76" width="1.86" height="7.83" rx="0.93" style="fill:#263238"></rect><g style="opacity:0.30000000000000004"><path d="M351.82,385.1l-8.61-5a1.55,1.55,0,0,1-.57-2.12h0a1.55,1.55,0,0,1,2.12-.57l8.62,5a1.55,1.55,0,0,1,.56,2.12h0A1.54,1.54,0,0,1,351.82,385.1Z" style="fill:#fff"></path></g><path d="M350.41,383.57l-5.17-3a1,1,0,0,1-.34-1.28h0a1,1,0,0,1,1.28-.34l5.16,3a.92.92,0,0,1,.34,1.27h0A.93.93,0,0,1,350.41,383.57Z" style="fill:#263238"></path><g style="opacity:0.30000000000000004"><path d="M370.76,396l-8.61-5a1.56,1.56,0,0,1-.57-2.13h0a1.56,1.56,0,0,1,2.13-.56l8.61,5a1.55,1.55,0,0,1,.57,2.12h0A1.56,1.56,0,0,1,370.76,396Z" style="fill:#fff"></path></g><path d="M369.35,394.51l-5.16-3a.93.93,0,0,1-.35-1.27h0a.93.93,0,0,1,1.28-.34l5.16,3a1,1,0,0,1,.35,1.28h0A1,1,0,0,1,369.35,394.51Z" style="fill:#263238"></path><g style="opacity:0.30000000000000004"><path d="M342.64,395.47h0a1.55,1.55,0,0,1,.57-2.12l8.61-5a1.55,1.55,0,0,1,2.12.56h0a1.56,1.56,0,0,1-.56,2.13l-8.62,5A1.55,1.55,0,0,1,342.64,395.47Z" style="fill:#fff"></path></g><path d="M344.9,394.17h0a1,1,0,0,1,.34-1.28l5.17-3a.92.92,0,0,1,1.27.34h0a.92.92,0,0,1-.34,1.27l-5.16,3A1,1,0,0,1,344.9,394.17Z" style="fill:#263238"></path><g style="opacity:0.30000000000000004"><path d="M361.58,384.53h0a1.55,1.55,0,0,1,.57-2.12l8.61-5a1.56,1.56,0,0,1,2.13.57h0a1.55,1.55,0,0,1-.57,2.12l-8.61,5A1.55,1.55,0,0,1,361.58,384.53Z" style="fill:#fff"></path></g><path d="M363.84,383.23h0a.93.93,0,0,1,.35-1.27l5.16-3a1,1,0,0,1,1.28.34h0a1,1,0,0,1-.35,1.28l-5.16,3A.94.94,0,0,1,363.84,383.23Z" style="fill:#263238"></path><path d="M360.37,386.74a2.61,2.61,0,1,1-2.61-2.61A2.61,2.61,0,0,1,360.37,386.74Z" style="fill:#263238"></path><path d="M83.83,326.2l23.1-7a2,2,0,0,0,.88-.55l6.91-7.45a2,2,0,0,0-1.27-3.33l-24.13-2.28A2,2,0,0,0,87.25,307l-5.87,16.68A2,2,0,0,0,83.83,326.2Z" style="opacity:0.30000000000000004"></path><path d="M87.25,307l-5.87,16.68A2,2,0,0,0,82,325.8l7.34-6.13a3.47,3.47,0,0,0,1-1.44l2.37-6.14A3.52,3.52,0,0,0,91,307.65l-3.14-1.54A2.06,2.06,0,0,0,87.25,307Z" style="opacity:0.30000000000000004"></path><path d="M321.34,310.92a222.18,222.18,0,0,0-30.56-19.85l5.12,27.39,4.27.53a12.25,12.25,0,0,0,4.31-.22l15.94-3.66A2.37,2.37,0,0,0,321.34,310.92Z"></path><path d="M210.53,275.66l5.13,32.83L229,310.15l-9.44-34.71Q215.11,275.5,210.53,275.66Z"></path><path d="M160.2,284.65l15.12,16,.19.19L174,278c-4,.36-8,.73-11.76,1.12A3.27,3.27,0,0,0,160.2,284.65Z"></path><path d="M296.22,313.5l-8.08-.21,1.79-12.84,7.67,1.7a5.75,5.75,0,0,1,4.51,5.61h0A5.74,5.74,0,0,1,296.22,313.5Z" style="fill:#FFC100"></path><polygon points="292.12 300.94 289.93 300.45 288.14 313.29 290.38 313.35 292.12 300.94" style="opacity:0.30000000000000004"></polygon><path d="M78.31,369.56l3.41-3.4a10.15,10.15,0,0,0,3-7.18V344.55a10.15,10.15,0,0,0-3.45-7.62l-2.93-2.57Z" style="fill:#fff;opacity:0.2"></path></g><g id="freepik--Character--inject-98"><path d="M211.45,273.65l5.41-1.81-3.9-5.61s-4.7,2.23-3.92,4.92Z" style="fill:#ffb573"></path><path d="M219.54,266.56l-1.7-1.74a2,2,0,0,0-2.55-.23L213,266.23l3.9,5.61,2.62-2.46A2,2,0,0,0,219.54,266.56Z" style="fill:#ffb573"></path><path d="M187.05,265.06a4.45,4.45,0,0,1,5.75,2.56l0,.06c.23.59.55,1.37.87,2.05s.65,1.41,1,2.1c.7,1.39,1.44,2.76,2.24,4.06s1.66,2.53,2.56,3.69c.36.45.74.87,1.12,1.29l.5-.45a27.58,27.58,0,0,0,2.77-3.18c.9-1.17,1.78-2.4,2.63-3.67.44-.62.87-1.26,1.29-1.9l.62-1,.3-.48c.08-.17.22-.32.8-.21l.93.17a6.17,6.17,0,0,1,3.58,2.06c.4.46.35.67.25.85l-.25.58-.52,1.14c-.36.76-.72,1.51-1.1,2.26-.78,1.48-1.6,2.95-2.54,4.39a35.33,35.33,0,0,1-3.26,4.27,16.52,16.52,0,0,1-2.21,2.08,9.86,9.86,0,0,1-3.47,1.81,3.78,3.78,0,0,1-3.26-.6l-.13-.1a34.34,34.34,0,0,1-7.77-8.37c-1-1.52-2-3.06-2.83-4.65-.43-.79-.85-1.59-1.24-2.4s-.76-1.59-1.17-2.56a.61.61,0,0,1,0-.12A4.45,4.45,0,0,1,187.05,265.06Z" style="fill:#FFC100"></path><path d="M187.05,265.06a4.45,4.45,0,0,1,5.75,2.56l0,.06c.23.59.55,1.37.87,2.05s.65,1.41,1,2.1c.7,1.39,1.44,2.76,2.24,4.06s1.66,2.53,2.56,3.69c.36.45.74.87,1.12,1.29l.5-.45a27.58,27.58,0,0,0,2.77-3.18c.9-1.17,1.78-2.4,2.63-3.67.44-.62.87-1.26,1.29-1.9l.62-1,.3-.48c.08-.17.22-.32.8-.21l.93.17a6.17,6.17,0,0,1,3.58,2.06c.4.46.35.67.25.85l-.25.58-.52,1.14c-.36.76-.72,1.51-1.1,2.26-.78,1.48-1.6,2.95-2.54,4.39a35.33,35.33,0,0,1-3.26,4.27,16.52,16.52,0,0,1-2.21,2.08,9.86,9.86,0,0,1-3.47,1.81,3.78,3.78,0,0,1-3.26-.6l-.13-.1a34.34,34.34,0,0,1-7.77-8.37c-1-1.52-2-3.06-2.83-4.65-.43-.79-.85-1.59-1.24-2.4s-.76-1.59-1.17-2.56a.61.61,0,0,1,0-.12A4.45,4.45,0,0,1,187.05,265.06Z" style="fill:#fff;opacity:0.6000000000000001"></path><path d="M190.81,273.65l-1.06,1.75-1.08,3.42c.37.58.73,1.16,1.11,1.73a41.61,41.61,0,0,0,3.66,4.64,41.83,41.83,0,0,0,.25-9.79Z" style="opacity:0.2"></path><path d="M160,397.33c-.67,3.31-3.31,12.7-3.33,15.18-2.1,2.05-4.09,2-4.81.19s.94-15,.94-15Z" style="fill:#ff8b7b"></path><path d="M159.91,360.91c3.69-24.24,2.37-37.73,4-49.14l24.74-.14c0,4.31-3.21,21.85-13.91,49-6.16,15.64-14.9,42.44-14.9,42.44L152.1,401S153.8,379.78,159.91,360.91Z" style="fill:#263238"></path><path d="M159.91,360.91c3.69-24.24,2.37-37.73,4-49.14l24.74-.14c0,4.31-3.21,21.85-13.91,49-6.16,15.64-14.9,42.44-14.9,42.44L152.1,401S153.8,379.78,159.91,360.91Z" style="fill:#fff;opacity:0.5"></path><path d="M176.67,325.52S178,336.57,179,349.1q-1.33,3.82-2.93,8c-6.94-10.3-10.35-24.81-10.94-30.57Z" style="opacity:0.2"></path><path d="M151.48,405.21a24.87,24.87,0,0,0,7.64.93c1.11-.28,1.71-4.22,1.71-4.22s-8.08-2.66-8.92-2.15S151.48,405.21,151.48,405.21Z" style="fill:#263238"></path><path d="M151.48,405.21a24.87,24.87,0,0,0,7.64.93c1.11-.28,1.71-4.22,1.71-4.22s-8.08-2.66-8.92-2.15S151.48,405.21,151.48,405.21Z" style="fill:#fff;opacity:0.5"></path><path d="M194.85,397a158.77,158.77,0,0,0,4,15.91,3.19,3.19,0,0,1-5.32.88c-1.34-1.43-5.45-14.11-5.45-14.11Z" style="fill:#ff8b7b"></path><path d="M175.2,357.85c-6.19-23.63-17.43-34.39-16.35-47.23l22.26,1.12s6.74,33.19,8.56,48.66,6.27,40.8,6.27,40.8l-6.44,2.67S176.61,375.93,175.2,357.85Z" style="fill:#263238"></path><path d="M175.2,357.85c-6.19-23.63-17.43-34.39-16.35-47.23l22.26,1.12s6.74,33.19,8.56,48.66,6.27,40.8,6.27,40.8l-6.44,2.67S176.61,375.93,175.2,357.85Z" style="fill:#fff;opacity:0.5"></path><path d="M189.36,407.51a28.7,28.7,0,0,0,7.45-3.53c.8-.83-.78-4.48-.78-4.48s-7.47,2-8.09,2.74S189.36,407.51,189.36,407.51Z" style="fill:#263238"></path><path d="M189.36,407.51a28.7,28.7,0,0,0,7.45-3.53c.8-.83-.78-4.48-.78-4.48s-7.47,2-8.09,2.74S189.36,407.51,189.36,407.51Z" style="fill:#fff;opacity:0.5"></path><path d="M164.11,261.48a96.3,96.3,0,0,1,19.82-.13,11,11,0,0,1,9.86,11c0,10.14-2.68,13.4-4.37,29,1.39,1.82.36,4.44-.81,4.72-9.87,2.34-24.54-.46-29.4-1.61-2.14-.5-.9-3.36-.9-3.36,0-5.26,1.05-4.84.76-11.34-.87-6.42-.19-11.25-1.45-19.78A7.46,7.46,0,0,1,164.11,261.48Z" style="fill:#FFC100"></path><path d="M164.11,261.48a96.3,96.3,0,0,1,19.82-.13,11,11,0,0,1,9.86,11c0,10.14-2.68,13.4-4.37,29,1.39,1.82.36,4.44-.81,4.72-9.87,2.34-24.54-.46-29.4-1.61-2.14-.5-.9-3.36-.9-3.36,0-5.26,1.05-4.84.76-11.34-.87-6.42-.19-11.25-1.45-19.78A7.46,7.46,0,0,1,164.11,261.48Z" style="fill:#fff;opacity:0.6000000000000001"></path><path d="M164.25,270.18c.68,5.93-3.11,15.84-5.14,20.64,0-.34,0-.7,0-1.09-.55-4-.49-7.39-.68-11.44Z" style="opacity:0.2"></path><path d="M188.61,311.63a26.73,26.73,0,0,0,0-5.59c0-.58-27.14-1.7-29.4-1.61-2.82.11-.42,13,1.8,17.41C180.68,323.13,188,315,188.61,311.63Z" style="fill:#263238"></path><path d="M188.61,311.63a26.73,26.73,0,0,0,0-5.59c0-.58-27.14-1.7-29.4-1.61-2.82.11-.42,13,1.8,17.41C180.68,323.13,188,315,188.61,311.63Z" style="fill:#fff;opacity:0.5"></path><path d="M150.31,286.58c.24-1.17.53-2.26.85-3.33.62-2.13,1.34-4.15,2.1-6.14s1.54-4,2.39-5.89,1.71-3.82,2.65-5.77a.41.41,0,0,0,0-.09,4.46,4.46,0,0,1,7.93,4.07l0,0c-.89,1.73-1.79,3.57-2.64,5.38s-1.7,3.63-2.48,5.45-1.52,3.65-2.14,5.44c-.31.9-.58,1.78-.79,2.62a14,14,0,0,0-.34,1.79,35.69,35.69,0,0,0,1.39,4.22c.64,1.66,1.36,3.34,2.12,5s1.51,3.36,2.3,5l1.16,2.53.6,1.26.3.62c.11.2.18.43-.2.9l-.24.29a6.07,6.07,0,0,1-4.13,2.2c-.61.06-.78-.11-.89-.33l-.39-.6-.77-1.22-1.5-2.45q-1.47-2.48-2.83-5t-2.58-5.26a35.59,35.59,0,0,1-2.21-5.91,2.91,2.91,0,0,1-.1-.72v-.08A18,18,0,0,1,150.31,286.58Z" style="fill:#FFC100"></path><path d="M150.31,286.58c.24-1.17.53-2.26.85-3.33.62-2.13,1.34-4.15,2.1-6.14s1.54-4,2.39-5.89,1.71-3.82,2.65-5.77a.41.41,0,0,0,0-.09,4.46,4.46,0,0,1,7.93,4.07l0,0c-.89,1.73-1.79,3.57-2.64,5.38s-1.7,3.63-2.48,5.45-1.52,3.65-2.14,5.44c-.31.9-.58,1.78-.79,2.62a14,14,0,0,0-.34,1.79,35.69,35.69,0,0,0,1.39,4.22c.64,1.66,1.36,3.34,2.12,5s1.51,3.36,2.3,5l1.16,2.53.6,1.26.3.62c.11.2.18.43-.2.9l-.24.29a6.07,6.07,0,0,1-4.13,2.2c-.61.06-.78-.11-.89-.33l-.39-.6-.77-1.22-1.5-2.45q-1.47-2.48-2.83-5t-2.58-5.26a35.59,35.59,0,0,1-2.21-5.91,2.91,2.91,0,0,1-.1-.72v-.08A18,18,0,0,1,150.31,286.58Z" style="fill:#fff;opacity:0.6000000000000001"></path><path d="M157.05,411.8l-5.78.09a.42.42,0,0,0-.43.37L150.1,417a.81.81,0,0,0,.82.93c2.08-.07,5.09-.24,7.72-.28,3.06-.05,2.76.08,6.36,0,2.17,0,2.63-2.24,1.71-2.43-4.2-.84-4.63-.89-8.35-3A2.59,2.59,0,0,0,157.05,411.8Z" style="fill:#FFC100"></path><path d="M158,412.27c.84.16,2.36.35,3-.18a.73.73,0,0,0,.25-.61h0a.35.35,0,0,0-.19-.33c-.63-.35-2.8.76-3.05.89a.12.12,0,0,0-.07.13.12.12,0,0,0,.08.1Zm2.89-.9s.07.06.07.13a.48.48,0,0,1-.16.41,3.53,3.53,0,0,1-2.38.18,5.39,5.39,0,0,1,2.42-.74Z" style="fill:#FFC100"></path><path d="M158.08,412.26c.65-.29,2-1.46,1.88-2.06,0-.14-.11-.31-.45-.34h0a1,1,0,0,0-.71.22,3.83,3.83,0,0,0-.89,2.06.1.1,0,0,0,.05.11l0,0A.1.1,0,0,0,158.08,412.26Zm1.63-2c0,.35-.84,1.27-1.51,1.67a3,3,0,0,1,.76-1.64.65.65,0,0,1,.51-.17h0l.13,0C159.7,410.17,159.71,410.22,159.71,410.25Zm-.22-.27Z" style="fill:#FFC100"></path><path d="M198.5,411l-5.73.8a.43.43,0,0,0-.38.42l-.16,4.78a.83.83,0,0,0,.93.83c2.07-.33,5-.86,7.63-1.23,3-.42,2.75-.26,6.31-.76,2.16-.3,2.35-2.55,1.41-2.62-4.28-.32-4.71-.31-8.67-2A2.61,2.61,0,0,0,198.5,411Z" style="fill:#FFC100"></path><path d="M199.51,411.32c.86.05,2.38.05,2.91-.55a.74.74,0,0,0,.18-.64h0a.35.35,0,0,0-.23-.3c-.67-.27-2.69,1.1-2.92,1.26a.13.13,0,0,0,0,.13.11.11,0,0,0,.09.09Zm2.76-1.26s.07.06.09.12a.5.5,0,0,1-.12.43,3.48,3.48,0,0,1-2.33.47,5.21,5.21,0,0,1,2.31-1Z" style="fill:#FFC100"></path><path d="M199.58,411.3c.61-.38,1.76-1.7,1.61-2.28,0-.14-.14-.3-.49-.29h0a1,1,0,0,0-.67.32,3.74,3.74,0,0,0-.64,2.14.12.12,0,0,0,.07.11h0A.14.14,0,0,0,199.58,411.3Zm1.37-2.21c.09.35-.68,1.37-1.29,1.85a3.13,3.13,0,0,1,.54-1.72.69.69,0,0,1,.5-.23h0a.28.28,0,0,1,.13,0C200.93,409,201,409.07,201,409.09Zm-.25-.23Z" style="fill:#FFC100"></path><path d="M171,249.51c.85,3.51,1.48,9.27-1.2,11.69,3.78,1.35,6.41,5.05,10.39,4.13,2.38-.56,2-2.25,1.76-4.05-4.38-.83-4.05-3.44-3.36-6.2Z" style="fill:#ffb573"></path><path d="M173.34,254.12a8,8,0,0,1-.42-1.56l5.59,2.43.12.09a12.94,12.94,0,0,0-.37,1.92C176.28,256.81,173.92,255.66,173.34,254.12Z" style="opacity:0.2"></path><path d="M181.94,237c3.66,1.45,2.39,9.71.79,10.57C179.73,249.17,177.4,235.2,181.94,237Z" style="fill:#263238"></path><path d="M170.38,244.21c.41,4.77.4,7.58,2.87,10,3.72,3.6,9.56,1.28,10.59-3.52.93-4.31.11-11.39-4.61-13.18A6.53,6.53,0,0,0,170.38,244.21Z" style="fill:#ffb573"></path><path d="M166.43,240.55c-.06,2.81,3.29,10.22,5.29,10s2.49-4.59,1.39-8.51c1.84-.59,13.62-.77,11.44-5.48-1.68-3.62-6.44-2.06-10.9-2.79a1.34,1.34,0,0,0-1.29,2.06c.11.18.08.26-.21.21-3.14-.45-4.69.95-6.5,1.38a1.33,1.33,0,0,0-.57,2.32A5.17,5.17,0,0,0,166.43,240.55Z" style="fill:#263238"></path><path d="M168.35,249.53a4.53,4.53,0,0,0,2.88,1.94c1.57.31,2.22-1.13,1.68-2.54s-1.88-3-3.41-2.63A2.05,2.05,0,0,0,168.35,249.53Z" style="fill:#ffb573"></path><path d="M177.66,245.38c0,.39.22.7.48.69s.45-.32.44-.71-.22-.7-.48-.7S177.65,245,177.66,245.38Z" style="fill:#263238"></path><path d="M182.06,245.28c0,.38.22.69.47.69s.46-.33.45-.72-.23-.7-.48-.69S182.05,244.89,182.06,245.28Z" style="fill:#263238"></path><path d="M180.66,245.5a14,14,0,0,0,1.94,3.28,2.25,2.25,0,0,1-1.85.4Z" style="fill:#ed893e"></path><path d="M180.64,251.27a.12.12,0,0,0,.1-.12.11.11,0,0,0-.11-.11,3.06,3.06,0,0,1-2.54-1.15.12.12,0,0,0-.16,0,.11.11,0,0,0,0,.16,3.25,3.25,0,0,0,2.73,1.25Z" style="fill:#263238"></path><path d="M176.33,244a.24.24,0,0,0,.15-.09,1.82,1.82,0,0,1,1.45-.8.24.24,0,0,0,.24-.22.25.25,0,0,0-.22-.24,2.27,2.27,0,0,0-1.84,1,.24.24,0,0,0,0,.32A.25.25,0,0,0,176.33,244Z" style="fill:#263238"></path><path d="M184,243.72l.07,0a.22.22,0,0,0,.1-.31,2.23,2.23,0,0,0-1.67-1.25.23.23,0,0,0-.25.2.23.23,0,0,0,.2.25,1.84,1.84,0,0,1,1.32,1A.22.22,0,0,0,184,243.72Z" style="fill:#263238"></path><path d="M166.09,299.44c3.76-.75,17.73-3.18,20.87,1.52a115.35,115.35,0,0,0-20.87-1.36Z" style="opacity:0.2"></path><path d="M183.6,251.51s-1.93,4-3.85,1.05l-1.43-.43s-2.83,2.37-4.64-2.9c0,0-1,5.85.47,4.43,0,0,.6,2.67,1.92,1.69,0,0,.26,1.64,2.56.59,0,0,1.66,1.16,2.48-1.16C181.11,254.78,182.31,255.84,183.6,251.51Z" style="fill:#263238"></path></g></svg>